<?xml version="1.0" encoding="UTF-8"?>
<svg viewBox="0 0 646 159" xmlns="http://www.w3.org/2000/svg">
  <defs>
    <style>
      .cls-1 {
        fill: #00d64f;
      }
    </style>
  </defs>
  <!-- Generator: Adobe Illustrator 28.7.1, SVG Export Plug-In . SVG Version: 1.2.0 Build 142)  -->
  <g>
    <g id="Layer_1">
      <path class="cls-1" d="M.1792,42.9872c.0905-.0128.221.0447.2438-.1004.0417-.2655.0893-.533.0962-.8006.0528-2.0684.1236-4.1356.2752-6.1998.2862-3.8969.8428-7.7483,1.9055-11.5163.9299-3.297,2.4507-6.3155,4.3956-9.1195,3.9183-5.6493,9.0954-9.7291,15.4875-12.265,1.708-.6776,3.4962-1.0927,5.288-1.4672,2.6932-.5629,5.42-.8966,8.1659-1.089C40.5784.1111,45.1262.047,49.6762.0472c20.6434.0006,41.2867.0046,61.9301-.0031,3.3285-.0012,6.6552.0714,9.9777.2405,4.208.2141,8.378.7124,12.4769,1.7555,3.2243.8205,6.2187,2.1393,9.0105,3.9189,6.2674,3.995,10.7548,9.4658,13.4674,16.3807.67,1.7081,1.0893,3.4936,1.4668,5.2839.5673,2.6903.8979,5.414,1.1013,8.1564.3819,5.1469.3858,10.3021.3858,15.4576-.0002,20.1486-.0086,40.2972-.0054,60.4458.0005,3.1557-.0777,6.3096-.2415,9.4592-.2169,4.169-.7069,8.3011-1.7357,12.365-.9363,3.6982-2.5293,7.0793-4.6948,10.1953-3.9647,5.7051-9.2015,9.8164-15.6874,12.3227-1.8395.7109-3.7591,1.1547-5.6884,1.5428-2.7985.5629-5.6289.8642-8.4759,1.0724-2.4758.1811-4.9504.2115-7.429.2113-23.9368-.0022-47.8736-.0077-71.8104.0064-3.1271.0018-6.2422-.1367-9.3541-.4315-2.5373-.2404-5.0382-.672-7.531-1.2007-9.706-2.0585-19.2355-9.567-23.4276-20.3134-.7301-1.8717-1.1847-3.8183-1.5819-5.7771-.5871-2.8948-.8813-5.8268-1.091-8.773-.1591-2.2349-.108-4.4761-.2961-6.7077-.0228-.27-.0379-.5418-.0834-.8082-.0138-.081-.1176-.1467-.1801-.2194,0-23.8801,0-47.7603,0-71.6404ZM69.2936,130.8867c2.1387,0,4.2775,0,6.4162,0,.2037,0,.4075.0047.611-.0017,1.1744-.0368,1.8052-.5522,2.0549-1.7173.362-1.6894.7047-3.3829,1.0569-5.0744.2072-.9951.4193-1.9893.6238-2.9849.0463-.2255.1593-.3675.3959-.3894.169-.0156.3387-.0233.5077-.0385,2.7748-.2499,5.5234-.6569,8.2179-1.3814,3.8628-1.0386,7.4996-2.5803,10.7945-4.8735,3.1353-2.182,5.734-4.8681,7.6487-8.188,1.6481-2.8577,2.6428-5.9272,3.0176-9.2067.3028-2.6505.2461-5.2829-.3276-7.8892-.9267-4.2103-3.181-7.5857-6.5518-10.2418-1.9582-1.543-4.1199-2.7405-6.3972-3.7363-3.3692-1.4732-6.8861-2.4808-10.4699-3.2679-3.2133-.7057-6.4185-1.4423-9.551-2.4583-1.5174-.4922-3.0079-1.0555-4.4171-1.814-.8099-.436-1.5761-.9347-2.247-1.5678-.9718-.917-1.5818-2.0166-1.7133-3.3659-.2086-2.1394.4012-4.0201,1.7783-5.6559.9786-1.1624,2.206-1.9995,3.5698-2.6472,1.9231-.9133,3.9687-1.3928,6.0721-1.593,3.1281-.2979,6.2398-.1517,9.3065.584,5.2683,1.264,9.7558,3.8313,13.2916,7.9791.1754.2057.3496.4196.5574.5893.6046.4938,1.4282.5445,2.0918.1434.1732-.1047.3323-.2349.4894-.3636,2.8614-2.3434,5.7216-4.6882,8.5813-7.0337.1573-.129.3192-.2557.4581-.4031.608-.6447.6988-1.4876.239-2.2435-.1228-.2019-.2759-.3861-.4222-.5729-1.5582-1.9891-3.3755-3.7119-5.3984-5.221-3.1267-2.3326-6.566-4.0655-10.2534-5.3209-.3207-.1092-.6397-.2234-.9572-.3416-.1396-.052-.214-.1592-.1968-.3129.015-.1344.0301-.2697.0589-.4016.4908-2.2508.9859-4.5007,1.4752-6.7519.2015-.927.4282-1.8508.577-2.7865.1682-1.0581-.5602-1.9461-1.6229-2.0534-.2692-.0272-.5425-.018-.8139-.018-4.3114-.0009-8.6228-.0006-12.9342-.0005-.1697,0-.3397-.0045-.5092.0022-1.1014.0437-1.6803.5067-1.9274,1.5837-.2197.9575-.4078,1.9222-.6116,2.8833-.3865,1.8229-.7693,3.6466-1.1648,5.4675-.1029.4737-.1213.4758-.5986.52-2.4023.2227-4.7771.604-7.1125,1.2162-3.872,1.0149-7.5178,2.5414-10.7927,4.8662-5.8016,4.1183-9.3947,9.5922-10.1616,16.7583-.2911,2.7208-.1154,5.4179.6049,8.067,1.0153,3.7341,3.1549,6.7174,6.1418,9.1279,1.859,1.5003,3.9109,2.6881,6.072,3.6921,3.5205,1.6355,7.207,2.7857,10.9735,3.689,2.3408.5614,4.6956,1.0643,7.0363,1.6258,1.9471.4671,3.8619,1.0463,5.7025,1.8466.9363.4071,1.8311.8886,2.6406,1.5161,1.1392.883,1.9381,1.9988,2.2134,3.4271.22,1.1412.2099,2.2941-.0406,3.4357-.3355,1.5288-1.078,2.8421-2.1333,3.9877-1.2639,1.372-2.8001,2.3485-4.5009,3.0818-2.3336,1.0061-4.7887,1.4887-7.3134,1.6164-2.5524.1291-5.0855-.0597-7.5932-.5756-5.3245-1.0952-9.9427-3.5192-13.8425-7.3064-1.0981-1.0664-2.0925-2.2224-3.0134-3.4431-.0613-.0812-.119-.1652-.1809-.2459-.8847-1.1517-1.8249-1.2992-2.971-.414-3.2224,2.4888-6.4368,4.988-9.6449,7.4951-1.0559.8252-1.1919,1.7413-.4476,2.8331.7465,1.095,1.5906,2.1137,2.4936,3.0834,3.2344,3.4731,7.0743,6.1054,11.3426,8.14,1.993.9501,4.0495,1.7416,6.1629,2.3783.9814.2956.9215.2685.6891,1.27-.2068.8909-.4277,1.7785-.6387,2.6685-.4689,1.9779-.947,3.9537-1.3992,5.9354-.297,1.3016.4609,2.3013,1.7785,2.3877.2367.0155.4751.0051.7128.0051,2.1387.0002,4.2775.0001,6.4162.0001Z"/>
      <path d="M289.9385,95.6775c0-7.1218.0014-14.2435-.0012-21.3653-.0005-1.2387.122-1.0974-1.0711-1.1023-1.4936-.0062-2.9872.0006-4.4808-.0033-.3049-.0008-.6136.0027-.9137-.0419-.8626-.1281-1.4621-.7726-1.5443-1.6389-.0191-.2019-.0116-.4066-.0117-.61-.0006-2.5435.0501-5.0884-.0202-7.6299-.0394-1.4249.756-2.3537,2.2865-2.3137,1.73.0452,3.4622.0085,5.1934.0106.461.0006.5715-.0196.5658-.5882-.01-.9834-.0151-1.9671.0003-2.9504.0336-2.14.2078-4.2644.7402-6.3476.8719-3.4118,2.5161-6.3474,5.2917-8.586,1.9043-1.5358,4.0821-2.5251,6.4244-3.177,2.3016-.6406,4.6596-.9102,7.0381-.9738,1.5257-.0408,3.0542.0197,4.5813.0383.2033.0025.4064.0254.6096.0384.879.0561,1.5966.7667,1.6809,1.7459.0174.2021.0083.4067.0083.6101.0004,2.5096.0003,5.0191.0002,7.5287,0,.1356.0042.2715-.0019.4069-.0548,1.2292-.7703,1.9469-1.9931,1.9694-.8822.0163-1.765-.0006-2.6476.0007-.7823.0012-1.5623.0467-2.3256.2269-.4601.1087-.9207.23-1.3636.393-1.3492.4967-2.2716,1.4439-2.8211,2.7609-.3421.8198-.5611,1.6795-.6026,2.5614-.0622,1.3201-.0533,2.6436-.0756,3.9656-.0041.2455.1034.3768.3596.3737.2376-.0029.4752.0023.7128.0024,6.9928.0002,13.9857.0001,20.9785.0001.1358,0,.2716.0017.4073-.0005.6632-.0106.6728-.011.6732-.6758.003-4.5444.0014-9.0887.0022-13.6331,0-.3051-.0174-.613.0168-.9147.1136-1.0038.8057-1.6547,1.8167-1.7259.2028-.0143.4072-.0047.6109-.0047,3.157-.0002,6.3139-.0001,9.4709,0,.1697,0,.3399-.0066.5091.0029,1.0801.0608,1.7708.7125,1.8647,1.7745.0268.3031.0136.6099.0137.915.0006,4.3409.0002,8.6818.0009,13.0226,0,.305.0031.6102.0129.915.0063.1974.1207.3053.3166.312.2712.0092.5427.0121.8141.0122,2.7835.0008,5.5671-.0008,8.3507.0022.3387.0004.6818-.006,1.0153.0426.9209.1344,1.5215.7867,1.5986,1.7042.0141.1685.0065.3389.0065.5085.0003,2.5774.0006,5.1548-.0003,7.7322,0,.2033.0086.4088-.0161.6097-.1005.8167-.6883,1.4451-1.4987,1.5735-.3326.0527-.676.051-1.0145.0514-2.8854.0037-5.7708.0032-8.6562.0015-.9705-.0006-.9297-.033-.9296.9538.0006,9.1565-.0014,18.3131.0036,27.4696.0005.8808.0361,1.7593.269,2.6219.3935,1.4573,1.2882,2.4192,2.7224,2.9042,1.0759.3639,2.1914.4517,3.3079.5,1.3903.0601,2.783.0564,4.171-.0869.236-.0244.4743-.0436.7111-.04.9963.015,1.8005.8535,1.7988,1.723-.0004.2373.0061.4747.0061.712.0005,2.4417.0003,4.8835.0003,7.3252,0,.1696.0047.3393-.0015.5087-.0419,1.1287-.5877,1.7646-1.6969,1.9211-1.0074.1421-2.0173.2894-3.0312.3582-1.862.1263-3.7259.2612-5.595.2076-2.3088-.0663-4.6092-.2137-6.865-.7611-.8572-.208-1.6955-.4705-2.5148-.8-3.2893-1.3229-5.4677-3.686-6.5891-7.0292-.476-1.419-.7453-2.8839-.8675-4.376-.108-1.3193-.1368-2.6401-.1359-3.9636.0062-9.6652.0047-19.3305.0017-28.9957-.0004-1.3015.1419-1.1492-1.1208-1.15-6.9589-.0042-13.9178-.0047-20.8767.0004-1.2809.0009-1.1347-.1622-1.135,1.1333-.0028,14.1757-.0017,28.3513-.0019,42.527,0,.3052.0126.6114-.0076.9154-.0693,1.0452-.8006,1.7881-1.8322,1.8088-.2375.0048-.4752.0055-.7128.0055-3.157.0003-6.3139.001-9.4709-.001-.3051-.0002-.6132.0064-.9146-.032-.8012-.1021-1.37-.6156-1.5296-1.4138-.0722-.3611-.073-.7403-.0732-1.1112-.0039-7.1217-.0029-14.2435-.0029-21.3653Z"/>
      <path d="M272.6926,119.6011c-1.6297,0-3.2594,0-4.8891,0-.2037,0-.4075.0033-.6111-.0008-1.2244-.0247-1.7149-.3542-2.1439-1.4885-.8265-2.1856-1.6399-4.3761-2.4587-6.5647-1.0919-2.9182-2.1837-5.8365-3.2756-8.7547-.0712-.1903-.1509-.3779-.2131-.5711-.0857-.2661-.2666-.3706-.5372-.362-.2374.0075-.4753.0004-.7129.0004-10.5251,0-21.0502,0-31.5753,0-.0339,0-.0679-.0006-.1019,0-1.1336.025-.9531-.176-1.3614.9208-1.8669,5.0147-3.7334,10.0295-5.6015,15.0437-.5741,1.541-.9075,1.7749-2.5453,1.7761-3.3613.0024-6.7225.0017-10.0838-.001-.3049-.0002-.6139.0039-.9138-.0416-1.0765-.1635-1.7527-1.2044-1.4676-2.2554.0884-.326.2192-.641.3385-.958,9.4038-24.9752,18.8132-49.9483,28.2009-74.9296.546-1.453,1.0265-1.9225,2.7831-1.904,4.4812.0473,8.9631.0157,13.4448.0158.2377,0,.4755-.0043.713.0028.7922.0239,1.3425.4157,1.6713,1.1241.0996.2144.1691.4428.2528.6646,7.9968,21.1987,15.9939,42.3973,23.9899,63.5963,1.4582,3.866,2.9114,7.7339,4.3672,11.6008.0835.2218.1854.4381.2522.6647.3569,1.2107-.3629,2.2867-1.6145,2.4067-.303.0291-.6106.0138-.9161.014-1.6637.001-3.3273.0005-4.9909.0005ZM230.2044,88.5695c.0977.0236.1948.0676.2919.0676,7.7405,0,15.481-.0033,23.2214-.0083.0301,0,.0627-.0255.0896-.0453.024-.0177.0418-.0439.1176-.1267-3.9228-10.4554-7.8586-20.9457-11.7985-31.4346-.033-.0879-.1226-.1546-.2466-.305-3.9061,10.5525-7.791,21.0467-11.6714,31.5426-.0324.0876-.004.1977-.004.3098Z"/>
      <path d="M484.3619,66.8458c.1731-.1812.3378-.3511.4998-.5234,3.1072-3.3057,6.9384-5.2544,11.3817-6.0456,4.0803-.7265,8.1205-.521,12.0795.6956,5.0764,1.5599,9.0907,4.6086,12.1744,8.9062,2.3442,3.2669,3.8725,6.9023,4.8409,10.7837,1.0775,4.3189,1.3301,8.7113.9931,13.131-.3456,4.5318-1.4138,8.894-3.4276,12.9939-1.7589,3.5809-4.1186,6.6932-7.2863,9.1556-3.2578,2.5325-6.9432,4.0566-11.0306,4.6161-3.2597.4462-6.4965.3642-9.705-.4119-3.9295-.9505-7.3008-2.8566-10.049-5.8359-.1378-.1494-.2799-.295-.4227-.4397-.0184-.0187-.053-.0214-.087-.0341-.2764.1533-.1471.419-.1477.6306-.0087,2.8831-.0059,5.7663-.0059,8.6495,0,4.6131,0,9.2261-.0002,13.8392,0,.2713.0151.5442-.0081.8137-.0885,1.0284-.7269,1.6793-1.7479,1.7922-.1681.0186-.339.0157-.5086.0157-3.3273.0008-6.6547.002-9.982-.0019-.27-.0003-.5457-.0091-.8089-.0624-.7767-.1573-1.2517-.6402-1.4202-1.4122-.043-.1969-.0531-.4026-.0619-.6049-.0102-.237-.0025-.4748-.0025-.7122,0-24.3203,0-48.6406.0007-72.9609,0-.3728-.0186-.749.0223-1.1179.1095-.9853.7293-1.5889,1.7201-1.7028.2015-.0231.4066-.0192.6101-.0193,3.2594-.0011,6.5188-.0013,9.7783.0002.2372.0001.477-.0033.7113.027.9685.1253,1.5901.7648,1.6857,1.7429.0296.3026.0109.61.0113.9153.0013.9158-.0011,1.8317.0042,2.7475.0007.125-.0376.2705.1886.4293ZM483.8174,90.8568c.0058,1.0894-.0261,2.6806.1849,4.2673.2927,2.2011.8581,4.3159,1.9124,6.2783,1.5342,2.8561,3.7834,4.9367,6.8479,6.0522,2.2.8009,4.4757,1.002,6.8106.7074,4.0216-.5075,7.1207-2.4426,9.305-5.8462,1.0722-1.6708,1.7797-3.497,2.228-5.4214.9599-4.1201.9866-8.2625.1639-12.4029-.4315-2.1713-1.1937-4.2314-2.3927-6.1122-1.4641-2.2969-3.4277-4.0045-5.9709-5.0119-2.0219-.8009-4.1352-1.0363-6.2909-.892-4.7688.3192-8.3443,2.5533-10.6617,6.7388-1.0966,1.9806-1.6553,4.1354-1.9485,6.3702-.2081,1.586-.1904,3.1774-.1882,5.2723Z"/>
      <path d="M570.0047,114.2257c-.0871.0712-.1983.1457-.2899.2393-2.4833,2.54-5.5092,4.1259-8.9,5.0853-3.2356.9154-6.5354,1.1675-9.8778.9952-2.9449-.1518-5.7682-.8212-8.4374-2.081-2.3301-1.0998-4.3687-2.5955-6.0204-4.5888-2.1178-2.5559-3.2883-5.4949-3.6147-8.7939-.2197-2.2212-.0574-4.409.5103-6.555.8423-3.184,2.6168-5.7793,5.1698-7.85,2.1577-1.7501,4.6079-2.9667,7.2001-3.9195,2.4874-.9142,5.0535-1.535,7.6497-2.0481,4.2896-.8477,8.5766-1.7078,12.8638-2.5672.7605-.1524,1.5383-.2329,2.3033-.5125.122-1.6828-.0036-3.3246-.6426-4.8935-.759-1.8637-2.1284-3.1181-3.9998-3.8157-1.9414-.7236-3.9642-.8799-6.0142-.7373-1.0154.0707-2.021.2158-3.0017.5147-2.1728.6623-3.8486,1.9559-5.0223,3.8969-.3866.6392-.7313,1.3035-.9635,2.0135-.3859,1.1792-1.3662,1.5999-2.4792,1.3568-2.6819-.5858-5.3724-1.1326-8.0597-1.6935-.4646-.097-.9319-.1807-1.3957-.2812-.231-.05-.4669-.1003-.6834-.1913-.8662-.3641-1.3177-1.2723-1.045-2.1676.1573-.5164.3714-1.0192.5999-1.5096,3.0701-6.5898,8.1411-10.8786,15.063-13.0147,2.642-.8153,5.3584-1.1843,8.1218-1.226,3.2038-.0484,6.3719.2322,9.4818,1.0314,2.1124.5429,4.1246,1.3396,5.983,2.4897,3.8811,2.4018,6.3248,5.8629,7.4934,10.2448.571,2.1412.8059,4.3273.8054,6.5413-.0016,6.6135-.0005,13.227-.0002,19.8406,0,1.6279.0013,3.2559.0008,4.8838-.0001.5787.0482,1.1491.2133,1.709.3186,1.0809,1.0213,1.7284,2.1334,1.924.3006.0529.6041.0888.9061.1337,1.1024.1641,1.6763.7898,1.6841,1.9232.0166,2.4079.0051,4.816.005,7.224,0,.0678-.0055.1357-.0032.2034.0292.8889-.7944,1.6913-1.5484,1.7413-.3719.0247-.7406.1015-1.1126.1221-1.628.0903-3.2585.1348-4.8855.0149-1.7655-.1301-3.4919-.457-5.1381-1.1457-2.0413-.8541-3.6488-2.1908-4.7205-4.1444-.0752-.1369-.1123-.3165-.3322-.3925ZM568.6007,92.3009c-.5191.1023-.9176.1772-1.3145.2596-3.0837.6398-6.1672,1.2807-9.2506,1.9218-1.6903.3515-3.3887.6722-5.0284,1.2281-1.2235.4148-2.4001.9277-3.4368,1.7189-1.2374.9444-2.0157,2.1732-2.3188,3.7019-.1196.6033-.1309,1.213-.1052,1.8222.1122,2.663,1.3914,4.5363,3.8369,5.6069,1.1322.4957,2.328.7156,3.5553.7684,1.1886.0511,2.3728-.008,3.5494-.1981,2.1283-.3439,4.1519-.9829,5.9684-2.1708,2.9669-1.9402,4.5722-4.6374,4.5464-8.2355-.0136-1.8975-.0021-3.7952-.0019-5.6928,0-.1996,0-.3992,0-.7305Z"/>
      <path d="M375.0536,93.6009c.0875,1.1141.3107,2.2056.5867,3.2868.4549,1.7825,1.1171,3.4845,2.0866,5.0523,2.3308,3.7694,5.6606,6.0409,10.0863,6.6325,3.1696.4236,6.2252.0417,9.112-1.3832,2.3256-1.1479,4.0751-2.8924,5.2645-5.1959.1398-.2708.2536-.5564.4089-.8177.4268-.7179,1.1784-1.0318,2.0045-.8392.2626.0612.5182.1566.7722.2495,2.5759.9424,5.1508,1.8874,7.7258,2.8322.2226.0817.4537.1473.6643.2534.8755.4408,1.2616,1.4132.909,2.3257-.1336.3456-.3243.6702-.5008.998-3.3636,6.2462-8.4617,10.3951-15.2188,12.5178-3.5013,1.0999-7.0962,1.4403-10.7547,1.2671-3.4539-.1635-6.7937-.8416-9.9812-2.1794-6.7404-2.8289-11.4737-7.6902-14.3832-14.3519-1.3662-3.1282-2.143-6.4125-2.5002-9.8061-.2209-2.0985-.2718-4.1999-.1433-6.2979.3971-6.4783,2.3257-12.432,6.3128-17.6234,4.226-5.5024,9.7872-8.8865,16.6021-10.1774,2.8493-.5397,5.727-.5984,8.6172-.2912,3.167.3366,6.1944,1.1391,9.0402,2.5746,4.2744,2.1562,7.5323,5.3799,9.9046,9.5141,1.7552,3.0587,2.8435,6.3553,3.4916,9.811.5973,3.185.6328,6.401.6242,9.6249-.0027,1.0112-.8569,2.0027-1.9278,1.9153-.2697-.022-.5428-.0026-.8143-.0026-12.287,0-24.5741-.0009-36.8612.0046-.3642.0002-.7434-.0881-1.1281.1061ZM388.3672,83.1894c3.8679,0,7.7358,0,11.6038,0,.2036,0,.4072.0033.6107-.0008.6777-.0136.7331-.0505.6569-.6774-.0939-.7724-.1706-1.5548-.3601-2.3064-1.0294-4.0825-3.5309-6.7803-7.622-7.928-1.883-.5282-3.8009-.6349-5.7461-.4159-2.9664.3339-5.5401,1.4838-7.6737,3.5857-1.8034,1.7766-2.9672,3.9356-3.7747,6.3064-.109.32-.1981.6472-.2872.9735-.1049.3841-.0517.4481.378.4608.2373.007.475.0018.7125.0018,3.834,0,7.668,0,11.502,0Z"/>
      <path d="M597.6979,60.9826c1.5955,0,3.191-.0001,4.7866.0001.2376,0,.4755-.0048.7128.0039.9496.0347,1.5872.4732,1.9019,1.3968.6334,1.8591,1.2971,3.7079,1.9421,5.5631,3.6695,10.5539,7.3371,21.1084,11.0058,31.6625.0888.2556.1863.5083.2744.7642.0296.086.0746.1201.1496.0785.0528-.0293.1221-.0643.141-.1133.097-.2525.1809-.5101.268-.7664,1.3509-3.9755,2.7033-7.9504,4.0519-11.9267,2.795-8.2409,5.5879-16.4825,8.3818-24.7238.0653-.1924.1329-.3839.1977-.5765.2947-.8756.9205-1.3069,1.8281-1.3563.1693-.0092.3394-.0058.5091-.0058,3.225-.0003,6.45-.0025,9.675.0031.3375.0006.6822.012,1.0108.0799.7944.1642,1.2189.6816,1.2773,1.4831.0477.6559-.0977,1.2696-.3293,1.8824-1.7478,4.6247-3.4823,9.2545-5.2211,13.8825-5.7641,15.3421-11.5285,30.6842-17.2922,46.0264-.7396,1.9689-1.5847,3.8883-2.638,5.713-1.0225,1.7714-2.2214,3.4055-3.696,4.832-2.4567,2.3767-5.3999,3.8284-8.7141,4.5616-1.9273.4264-3.8829.6328-5.8584.6235-1.425-.0067-2.8518.039-4.2716-.1436-1.2834-.165-1.8838-.7856-1.8921-2.0653-.0168-2.6113-.0195-5.2229.001-7.8342.0107-1.3626.7661-2.0478,2.1167-2.0179,1.1196.0248,2.2395.0462,3.3592.0457.7836-.0004,1.5488-.1514,2.3072-.3477,1.4049-.3636,2.5111-1.153,3.3729-2.3059.6133-.8206,1.0711-1.7253,1.4583-2.6687.6429-1.5662,1.2676-3.1401,1.9369-4.6949.2044-.4748.1852-.8807.0056-1.3521-1.5184-3.987-3.019-7.9807-4.5219-11.9736-5.1049-13.5639-10.2086-27.1284-15.3127-40.6926-.0715-.1901-.1541-.3771-.2107-.5715-.3664-1.2587.4054-2.3276,1.5845-2.4403.2695-.0258.5422-.0239.8134-.0242,1.6295-.002,3.2589-.001,4.8884-.001Z"/>
      <path d="M440.5868,69.019c.1972-.0566.2425-.1906.3087-.3048,2.0167-3.4783,5.0363-5.7054,8.7922-6.9951,1.937-.6651,3.9371-1.0165,5.9881-1.0381.882-.0093,1.7665-.0137,2.6463.0392,1.1186.0673,1.7839.7882,1.8374,1.9129.0112.2369.0033.4746.0033.712,0,3.0179,0,6.0358,0,9.0537,0,.1356.0011.2713-.0005.4069-.0179,1.5613-.7061,2.2195-2.2684,2.1578-1.3909-.0549-2.7824-.1154-4.1728-.0209-2.1562.1465-4.2199.6688-6.13,1.6874-3.7465,1.998-5.9338,5.1512-6.7649,9.2784-.262,1.3011-.3373,2.6203-.3373,3.9449.0002,9.0198.0003,18.0395-.0004,27.0593,0,.3389-.006.6779-.0134,1.0167-.0178.8082-.7275,1.5978-1.6382,1.6515-.2369.014-.4746.0192-.712.0193-3.2584.0012-6.5168.0013-9.7752,0-.2373,0-.4767.0047-.7116-.0227-.9092-.1062-1.5446-.7457-1.6477-1.6599-.0265-.2347-.0146-.4741-.0146-.7114-.0005-17.9378-.0005-35.8757-.0003-53.8135,0-.2034-.0098-.4079.0067-.6101.079-.9721.6956-1.635,1.6564-1.7669.2674-.0367.5415-.0317.8126-.0318,3.1905-.002,6.381-.0025,9.5716.0007.3045.0003.6135.0003.9127.0486.8903.1436,1.4516.7479,1.5362,1.6384.0256.2691.0165.5419.0168.813.0013,1.5937-.0021,3.1875.0036,4.7812.0008.2279-.0612.4653.0947.7532Z"/>
    </g>
  </g>
</svg>