<?xml version="1.0" encoding="UTF-8"?>
<svg xmlns="http://www.w3.org/2000/svg" version="1.1" viewBox="0 0 32 20">
  <defs>
    <style>
      .cls-1 {
        fill: #fff;
      }

      .cls-2 {
        fill: #00d64f;
      }
    </style>
  </defs>
  <!-- Generator: Adobe Illustrator 28.7.1, SVG Export Plug-In . SVG Version: 1.2.0 Build 142)  -->
  <g>
    <g id="Layer_1">
      <g>
        <rect class="cls-1" y="0" width="32" height="20"/>
        <path class="cls-2" d="M8.6877,6.6527c.0083-.0012.0203.0041.0224-.0092.0038-.0244.0082-.0489.0088-.0735.0049-.1899.0113-.3796.0253-.5691.0263-.3577.0774-.7113.1749-1.0572.0854-.3027.225-.5797.4035-.8371.3597-.5186.8349-.8931,1.4217-1.1259.1568-.0622.3209-.1003.4854-.1347.2472-.0517.4975-.0823.7496-.1.4169-.0292.8344-.0351,1.2521-.0351,1.895,0,3.79.0004,5.685-.0003.3055-.0001.6109.0066.9159.0221.3863.0197.7691.0654,1.1454.1611.296.0753.5709.1964.8271.3597.5753.3667.9873.8689,1.2363,1.5037.0615.1568.1.3207.1347.485.0521.247.0824.497.1011.7487.0351.4725.0354.9457.0354,1.419,0,1.8496-.0008,3.6992-.0005,5.5488,0,.2897-.0071.5792-.0222.8683-.0199.3827-.0649.762-.1593,1.1351-.0859.3395-.2322.6499-.431.9359-.3639.5237-.8447.9011-1.4401,1.1312-.1689.0653-.3451.106-.5222.1416-.2569.0517-.5167.0793-.7781.0984-.2273.0166-.4544.0194-.682.0194-2.1973-.0002-4.3947-.0007-6.592.0006-.2871.0002-.573-.0125-.8587-.0396-.2329-.0221-.4625-.0617-.6913-.1102-.891-.189-1.7658-.8782-2.1506-1.8647-.067-.1718-.1088-.3505-.1452-.5303-.0539-.2657-.0809-.5349-.1002-.8053-.0146-.2052-.0099-.4109-.0272-.6157-.0021-.0248-.0035-.0497-.0077-.0742-.0013-.0074-.0108-.0135-.0165-.0201,0-2.1921,0-4.3843,0-6.5764ZM15.0322,14.7216c.1963,0,.3927,0,.589,0,.0187,0,.0374.0004.0561-.0002.1078-.0034.1657-.0507.1886-.1576.0332-.1551.0647-.3105.097-.4658.019-.0913.0385-.1826.0573-.274.0043-.0207.0146-.0337.0363-.0357.0155-.0014.0311-.0021.0466-.0035.2547-.0229.507-.0603.7544-.1268.3546-.0953.6884-.2369.9909-.4474.2878-.2003.5264-.4469.7021-.7516.1513-.2623.2426-.5441.277-.8451.0278-.2433.0226-.485-.0301-.7242-.0851-.3865-.292-.6963-.6014-.9402-.1798-.1416-.3782-.2516-.5872-.343-.3093-.1352-.6321-.2277-.9611-.3-.295-.0648-.5892-.1324-.8768-.2257-.1393-.0452-.2761-.0969-.4055-.1665-.0744-.04-.1447-.0858-.2063-.1439-.0892-.0842-.1452-.1851-.1573-.309-.0192-.1964.0368-.369.1632-.5192.0898-.1067.2025-.1836.3277-.243.1765-.0838.3643-.1279.5574-.1462.2872-.0273.5728-.0139.8543.0536.4836.116.8956.3517,1.2201.7325.0161.0189.0321.0385.0512.0541.0555.0453.1311.05.192.0132.0159-.0096.0305-.0216.0449-.0334.2627-.2151.5252-.4304.7877-.6457.0144-.0118.0293-.0235.0421-.037.0558-.0592.0641-.1366.0219-.2059-.0113-.0185-.0253-.0354-.0388-.0526-.143-.1826-.3099-.3407-.4956-.4793-.287-.2141-.6027-.3732-.9412-.4884-.0294-.01-.0587-.0205-.0879-.0314-.0128-.0048-.0196-.0146-.0181-.0287.0014-.0123.0028-.0248.0054-.0369.0451-.2066.0905-.4132.1354-.6198.0185-.0851.0393-.1699.053-.2558.0154-.0971-.0514-.1786-.149-.1885-.0247-.0025-.0498-.0017-.0747-.0017-.3958,0-.7916,0-1.1873,0-.0156,0-.0312-.0004-.0467.0002-.1011.004-.1542.0465-.1769.1454-.0202.0879-.0374.1765-.0561.2647-.0355.1673-.0706.3347-.1069.5019-.0094.0435-.0111.0437-.0549.0477-.2205.0204-.4385.0554-.6529.1116-.3554.0932-.6901.2333-.9907.4467-.5326.378-.8624.8805-.9328,1.5384-.0267.2498-.0106.4973.0555.7405.0932.3428.2896.6166.5638.8379.1707.1377.359.2468.5574.3389.3232.1501.6616.2557,1.0073.3386.2149.0515.431.0977.6459.1492.1787.0429.3545.096.5235.1695.086.0374.1681.0816.2424.1392.1046.0811.1779.1835.2032.3146.0202.1048.0193.2106-.0037.3154-.0308.1403-.099.2609-.1958.3661-.116.1259-.257.2156-.4132.2829-.2142.0924-.4396.1367-.6714.1484-.2343.0119-.4668-.0055-.697-.0528-.4888-.1005-.9127-.3231-1.2707-.6707-.1008-.0979-.1921-.204-.2766-.3161-.0056-.0075-.0109-.0152-.0166-.0226-.0812-.1057-.1675-.1193-.2727-.038-.2958.2285-.5909.4579-.8854.688-.0969.0757-.1094.1598-.0411.2601.0685.1005.146.194.2289.283.2969.3188.6494.5605,1.0412.7472.183.0872.3717.1599.5657.2183.0901.0271.0846.0246.0633.1166-.019.0818-.0393.1633-.0586.245-.043.1816-.0869.3629-.1284.5449-.0273.1195.0423.2113.1633.2192.0217.0014.0436.0005.0654.0005.1963,0,.3927,0,.589,0Z"/>
        <path id="_x24_" class="cls-1" d="M15.0322,14.7216c-.1963,0-.3927,0-.589,0-.0218,0-.0437.001-.0654-.0005-.121-.0079-.1905-.0997-.1633-.2192.0415-.1819.0854-.3633.1284-.5449.0194-.0817.0396-.1632.0586-.245.0213-.0919.0268-.0894-.0633-.1166-.194-.0584-.3828-.1311-.5657-.2183-.3918-.1868-.7443-.4284-1.0412-.7472-.0829-.089-.1604-.1825-.2289-.283-.0683-.1002-.0558-.1843.0411-.2601.2945-.2301.5896-.4596.8854-.688.1052-.0813.1915-.0677.2727.038.0057.0074.011.0151.0166.0226.0845.1121.1758.2182.2766.3161.358.3477.7819.5702,1.2707.6707.2302.0474.4627.0647.697.0528.2318-.0117.4571-.056.6714-.1484.1561-.0673.2971-.157.4132-.2829.0969-.1052.165-.2257.1958-.3661.023-.1048.0239-.2106.0037-.3154-.0253-.1311-.0986-.2335-.2032-.3146-.0743-.0576-.1565-.1018-.2424-.1392-.169-.0735-.3447-.1266-.5235-.1695-.2149-.0515-.431-.0977-.6459-.1492-.3458-.0829-.6842-.1885-1.0073-.3386-.1984-.0922-.3867-.2012-.5574-.3389-.2742-.2213-.4706-.4951-.5638-.8379-.0661-.2432-.0823-.4908-.0555-.7405.0704-.6578.4002-1.1603.9328-1.5384.3006-.2134.6353-.3535.9907-.4467.2144-.0562.4324-.0912.6529-.1116.0438-.0041.0455-.0043.0549-.0477.0363-.1672.0714-.3346.1069-.5019.0187-.0882.036-.1768.0561-.2647.0227-.0989.0758-.1414.1769-.1454.0156-.0006.0312-.0002.0467-.0002.3958,0,.7916,0,1.1873,0,.0249,0,.05-.0008.0747.0017.0976.0099.1644.0914.149.1885-.0137.0859-.0345.1707-.053.2558-.0449.2066-.0904.4132-.1354.6198-.0026.0121-.004.0245-.0054.0369-.0016.0141.0053.024.0181.0287.0291.0108.0584.0213.0879.0314.3385.1152.6542.2743.9412.4884.1857.1385.3525.2967.4956.4793.0134.0171.0275.0341.0388.0526.0422.0694.0339.1468-.0219.2059-.0128.0135-.0276.0252-.0421.037-.2625.2153-.5251.4306-.7877.6457-.0144.0118-.029.0238-.0449.0334-.0609.0368-.1365.0322-.192-.0132-.0191-.0156-.0351-.0352-.0512-.0541-.3246-.3808-.7365-.6164-1.2201-.7325-.2815-.0675-.5672-.081-.8543-.0536-.1931.0184-.3809.0624-.5574.1462-.1252.0595-.2379.1363-.3277.243-.1264.1502-.1824.3228-.1632.5192.0121.1239.0681.2248.1573.309.0616.0581.1319.1039.2063.1439.1294.0696.2662.1213.4055.1665.2876.0933.5818.1609.8768.2257.329.0723.6518.1647.9611.3.2091.0914.4075.2013.5872.343.3094.2438.5164.5537.6014.9402.0527.2393.0579.4809.0301.7242-.0344.301-.1257.5828-.277.8451-.1758.3048-.4143.5513-.7021.7516-.3025.2105-.6363.352-.9909.4474-.2473.0665-.4997.1039-.7544.1268-.0155.0014-.0311.0021-.0466.0035-.0217.002-.0321.015-.0363.0357-.0188.0914-.0382.1827-.0573.274-.0323.1553-.0638.3107-.097.4658-.0229.107-.0808.1543-.1886.1576-.0187.0006-.0374.0002-.0561.0002-.1963,0-.3927,0-.589,0Z"/>
      </g>
    </g>
  </g>
</svg>