<?xml version="1.0" encoding="utf-8"?>
<!-- Generator: Adobe Illustrator 22.1.0, SVG Export Plug-In . SVG Version: 6.00 Build 0)  -->
<svg version="1.1" id="Capa_1" xmlns="http://www.w3.org/2000/svg" xmlns:xlink="http://www.w3.org/1999/xlink" x="0px" y="0px"
	 viewBox="0 0 1920 1080" style="enable-background:new 0 0 1920 1080;" xml:space="preserve">
<style type="text/css">
	.st0{fill:#D47F55;stroke:#FFFFFF;stroke-miterlimit:10;}
	.st1{fill:url(#SVGID_1_);}
	.st2{fill:#FFFFFF;stroke:#FFFFFF;stroke-width:0.8294;stroke-miterlimit:10;}
	.st3{fill:#FFFFFF;stroke:#FFFFFF;stroke-width:0.6176;stroke-miterlimit:10;}
	.st4{fill:#FFFFFF;stroke:#FFFFFF;stroke-width:2.1199;stroke-miterlimit:10;}
	.st5{fill:#FFFFFF;stroke:#FFFFFF;stroke-width:2.7545;stroke-miterlimit:10;}
	.st6{fill:url(#SVGID_2_);}
	.st7{fill:url(#SVGID_3_);stroke:#FFFFFF;stroke-width:2.7545;stroke-miterlimit:10;}
	.st8{fill:url(#SVGID_4_);stroke:#FFFFFF;stroke-width:0.9166;stroke-miterlimit:10;}
	.st9{fill:url(#SVGID_5_);stroke:#FFFFFF;stroke-width:0.9166;stroke-miterlimit:10;}
	.st10{fill:url(#SVGID_6_);stroke:#FFFFFF;stroke-width:0.3183;stroke-miterlimit:10;}
	.st11{fill:url(#SVGID_7_);stroke:#FFFFFF;stroke-width:0.9166;stroke-miterlimit:10;}
	.st12{fill:url(#SVGID_8_);stroke:#FFFFFF;stroke-width:0.3183;stroke-miterlimit:10;}
	.st13{fill:url(#SVGID_9_);stroke:#FFFFFF;stroke-width:0.9166;stroke-miterlimit:10;}
	.st14{fill:url(#SVGID_10_);stroke:#FFFFFF;stroke-width:0.2888;stroke-miterlimit:10;}
	.st15{fill:url(#SVGID_11_);stroke:#FFFFFF;stroke-width:0.9166;stroke-miterlimit:10;}
	.st16{fill:url(#SVGID_12_);stroke:#FFFFFF;stroke-width:0.2888;stroke-miterlimit:10;}
	.st17{fill:url(#SVGID_13_);stroke:#FFFFFF;stroke-width:0.9166;stroke-miterlimit:10;}
	.st18{fill:url(#SVGID_14_);stroke:#FFFFFF;stroke-width:0.2888;stroke-miterlimit:10;}
	.st19{fill:url(#SVGID_15_);stroke:#FFFFFF;stroke-width:0.9166;stroke-miterlimit:10;}
	.st20{fill:url(#SVGID_16_);stroke:#FFFFFF;stroke-width:0.2888;stroke-miterlimit:10;}
	.st21{fill:url(#SVGID_17_);stroke:#FFFFFF;stroke-width:0.2888;stroke-miterlimit:10;}
	.st22{fill:url(#SVGID_18_);}
	.st23{fill:url(#SVGID_19_);}
	.st24{fill:url(#SVGID_20_);}
	.st25{opacity:0.54;enable-background:new    ;}
	.st26{fill:none;stroke:url(#SVGID_21_);stroke-width:2.7497;stroke-miterlimit:10;}
	.st27{opacity:0.53;enable-background:new    ;}
	.st28{fill:none;stroke:url(#SVGID_22_);stroke-width:2.7497;stroke-miterlimit:10;}
	.st29{opacity:0.54;fill:none;stroke:url(#SVGID_23_);stroke-width:2.7497;stroke-miterlimit:10;enable-background:new    ;}
	.st30{fill:url(#SVGID_24_);}
	.st31{fill:url(#SVGID_25_);stroke:#FFFFFF;stroke-width:0.9166;stroke-miterlimit:10;}
	.st32{fill:none;stroke:url(#SVGID_26_);stroke-width:2.7497;stroke-miterlimit:10;}
	.st33{fill:url(#SVGID_27_);}
	.st34{opacity:0.4;fill:url(#SVGID_28_);enable-background:new    ;}
	.st35{fill:url(#SVGID_29_);}
</style>
<path class="st0" d="M1722.5,423.5"/>
<linearGradient id="SVGID_1_" gradientUnits="userSpaceOnUse" x1="366.5" y1="566.4" x2="366.5" y2="566.4" gradientTransform="matrix(1 0 0 -1 0 1080)">
	<stop  offset="5.618000e-03" style="stop-color:#D2844E"/>
	<stop  offset="0.8123" style="stop-color:#E8BE4F"/>
	<stop  offset="1" style="stop-color:#EDCC4F"/>
</linearGradient>
<path class="st1" d="M366.5,513.6"/>
<path class="st2" d="M818.9,593.9h-14.1v-1.3C809.5,593.2,814.2,593.7,818.9,593.9z"/>
<path class="st3" d="M868.9,593.9c-0.4,0-0.7,0.1-1.1,0.1c-7.9,0.5-15.9,0.8-23.9,0.8c-8.1,0-16.1-0.3-24-0.8c-0.4,0-0.7,0-1.1-0.1
	H868.9z"/>
<path class="st4" d="M818.9,593.9h-14.1v-1.3C809.5,593.2,814.2,593.7,818.9,593.9z"/>
<path class="st4" d="M883.1,592.7v1.3H869C873.7,593.7,878.4,593.2,883.1,592.7z"/>
<path class="st5" d="M804.8,592.7v1.3h14.1C814.2,593.7,809.5,593.2,804.8,592.7z M818.9,593.9c0.4,0,0.7,0.1,1.1,0.1
	c7.9,0.5,15.9,0.8,24,0.8s16.1-0.3,23.9-0.8c0.4,0,0.7,0,1.1-0.1H818.9z M868.9,593.9H883v-1.3C878.4,593.2,873.7,593.7,868.9,593.9
	z"/>
<g>
	
		<linearGradient id="SVGID_2_" gradientUnits="userSpaceOnUse" x1="1350.6144" y1="-75.6172" x2="1446.2904" y2="-75.6172" gradientTransform="matrix(-0.6882 -9.620001e-02 -0.1051 0.7516 2046.3888 998.7861)">
		<stop  offset="5.618000e-03" style="stop-color:#D2844E"/>
		<stop  offset="0.8123" style="stop-color:#E8BE4F"/>
		<stop  offset="1" style="stop-color:#EDCC4F"/>
	</linearGradient>
	<path class="st6" d="M1062.9,792.1c-3.8-6.6-0.7-11.1,6.8-10l50.6,7c7.5,1,9.2,6.2,3.7,11.5l-26.2,25.4c-5.4,5.3-13,4.2-16.7-2.3
		L1062.9,792.1z"/>
</g>
<linearGradient id="SVGID_3_" gradientUnits="userSpaceOnUse" x1="874.2" y1="574.2" x2="874.2" y2="574.2" gradientTransform="matrix(1 0 0 -1 0 1080)">
	<stop  offset="5.618000e-03" style="stop-color:#D2844E"/>
	<stop  offset="0.8123" style="stop-color:#E8BE4F"/>
	<stop  offset="1" style="stop-color:#EDCC4F"/>
</linearGradient>
<path class="st7" d="M874.2,505.8"/>
<linearGradient id="SVGID_4_" gradientUnits="userSpaceOnUse" x1="874.2" y1="646.8" x2="874.2" y2="646.8" gradientTransform="matrix(1 0 0 -1 0 1080)">
	<stop  offset="5.618000e-03" style="stop-color:#D2844E"/>
	<stop  offset="0.8123" style="stop-color:#E8BE4F"/>
	<stop  offset="1" style="stop-color:#EDCC4F"/>
</linearGradient>
<path class="st8" d="M874.2,433.2"/>
<g>
	
		<image style="overflow:visible;opacity:8.000000e-02;enable-background:new    ;" width="336" height="329" xlink:href="../mm/E2290728.png"  transform="matrix(0.9201 0 0 0.9131 562.4258 215.9356)">
	</image>
	<g>
		<g>
			<g>
				
					<linearGradient id="SVGID_5_" gradientUnits="userSpaceOnUse" x1="603.3" y1="711.4" x2="603.3" y2="711.4" gradientTransform="matrix(1 0 0 -1 0 1080)">
					<stop  offset="5.618000e-03" style="stop-color:#D2844E"/>
					<stop  offset="0.8123" style="stop-color:#E8BE4F"/>
					<stop  offset="1" style="stop-color:#EDCC4F"/>
				</linearGradient>
				<path class="st9" d="M603.3,368.6"/>
				
					<linearGradient id="SVGID_6_" gradientUnits="userSpaceOnUse" x1="603.3" y1="711.4" x2="603.3" y2="711.4" gradientTransform="matrix(1 0 0 -1 0 1080)">
					<stop  offset="5.618000e-03" style="stop-color:#D2844E"/>
					<stop  offset="0.8123" style="stop-color:#E8BE4F"/>
					<stop  offset="1" style="stop-color:#EDCC4F"/>
				</linearGradient>
				<path class="st10" d="M603.3,368.6"/>
			</g>
			<g>
				
					<linearGradient id="SVGID_7_" gradientUnits="userSpaceOnUse" x1="634.4" y1="732.1" x2="634.4" y2="732.1" gradientTransform="matrix(1 0 0 -1 0 1080)">
					<stop  offset="5.618000e-03" style="stop-color:#D2844E"/>
					<stop  offset="0.8123" style="stop-color:#E8BE4F"/>
					<stop  offset="1" style="stop-color:#EDCC4F"/>
				</linearGradient>
				<path class="st11" d="M634.4,347.9"/>
				
					<linearGradient id="SVGID_8_" gradientUnits="userSpaceOnUse" x1="634.4" y1="732.1" x2="634.4" y2="732.1" gradientTransform="matrix(1 0 0 -1 0 1080)">
					<stop  offset="5.618000e-03" style="stop-color:#D2844E"/>
					<stop  offset="0.8123" style="stop-color:#E8BE4F"/>
					<stop  offset="1" style="stop-color:#EDCC4F"/>
				</linearGradient>
				<path class="st12" d="M634.4,347.9"/>
			</g>
			<g>
				
					<linearGradient id="SVGID_9_" gradientUnits="userSpaceOnUse" x1="658.3" y1="721.1" x2="844.0999" y2="721.1" gradientTransform="matrix(1 0 0 -1 0 1080)">
					<stop  offset="5.618000e-03" style="stop-color:#D2844E"/>
					<stop  offset="0.8123" style="stop-color:#E8BE4F"/>
					<stop  offset="1" style="stop-color:#EDCC4F"/>
				</linearGradient>
				<path class="st13" d="M765.8,226.4c-5.3,0-13.9,0.5-19.1,1.3c0,0-15.3,1.9-26.4,7.8c-7.2,3.7-13.9,8.6-20.1,14.2
					c-21.8,20.2-37,51.7-40.9,87.9c-0.7,5.9-1,12.2-1,18.4c0,1,0,1.9,0,2.9l0,0c0.2,0,0.3,5.7,0.3,12.6v107.6
					c0,6.9,4.3,12.6,9.6,12.6h104.4c5.3,0,9.6-5.7,9.6-12.6V371.4c0-6.9,4.3-12.6,9.6-12.6h42.7c5.3,0,9.6-5.7,9.6-12.6V238.7
					c0-6.9-4.3-12.6-9.6-12.6h-68.6L765.8,226.4L765.8,226.4z M824.3,325c0,6.9-4.3,12.6-9.6,12.6h-84.5c-5.3,0-9.6,4.8-9.6,10.7
					c0,5.9,4.3,10.7,9.6,10.7h22.5c5.3,0,9.6,5.7,9.6,12.6v86.8c0,6.9-4.3,12.6-9.6,12.6h-64.5c-5.3,0-9.6-5.7-9.6-12.6v-86.8
					c0-6.9,0.2-18.3,0.5-25c0,0,0-1.9,1.1-8.9c2.9-20.8,10.1-39.7,20.3-55.1c5.8-8.7,12.5-16.3,20.1-22.5c6.2-5.2,11.1-7.6,11.1-7.6
					c4.9-2.6,9-4.7,9-4.7s4.3,0,9.6,0h64.5c5.3,0,9.6,5.7,9.6,12.6L824.3,325L824.3,325L824.3,325z"/>
				
					<linearGradient id="SVGID_10_" gradientUnits="userSpaceOnUse" x1="658.3" y1="721.1" x2="844.0999" y2="721.1" gradientTransform="matrix(1 0 0 -1 0 1080)">
					<stop  offset="5.618000e-03" style="stop-color:#D2844E"/>
					<stop  offset="0.8123" style="stop-color:#E8BE4F"/>
					<stop  offset="1" style="stop-color:#EDCC4F"/>
				</linearGradient>
				<path class="st14" d="M765.8,226.4c-5.3,0-13.9,0.5-19.1,1.3c0,0-15.3,1.9-26.4,7.8c-7.2,3.7-13.9,8.6-20.1,14.2
					c-21.8,20.2-37,51.7-40.9,87.9c-0.7,5.9-1,12.2-1,18.4c0,1,0,1.9,0,2.9l0,0c0.2,0,0.3,5.7,0.3,12.6v107.6
					c0,6.9,4.3,12.6,9.6,12.6h104.4c5.3,0,9.6-5.7,9.6-12.6V371.4c0-6.9,4.3-12.6,9.6-12.6h42.7c5.3,0,9.6-5.7,9.6-12.6V238.7
					c0-6.9-4.3-12.6-9.6-12.6h-68.6L765.8,226.4L765.8,226.4z M824.3,325c0,6.9-4.3,12.6-9.6,12.6h-84.5c-5.3,0-9.6,4.8-9.6,10.7
					c0,5.9,4.3,10.7,9.6,10.7h22.5c5.3,0,9.6,5.7,9.6,12.6v86.8c0,6.9-4.3,12.6-9.6,12.6h-64.5c-5.3,0-9.6-5.7-9.6-12.6v-86.8
					c0-6.9,0.2-18.3,0.5-25c0,0,0-1.9,1.1-8.9c2.9-20.8,10.1-39.7,20.3-55.1c5.8-8.7,12.5-16.3,20.1-22.5c6.2-5.2,11.1-7.6,11.1-7.6
					c4.9-2.6,9-4.7,9-4.7s4.3,0,9.6,0h64.5c5.3,0,9.6,5.7,9.6,12.6L824.3,325L824.3,325L824.3,325z"/>
			</g>
			<g>
				
					<linearGradient id="SVGID_11_" gradientUnits="userSpaceOnUse" x1="570.1" y1="787.5266" x2="658.4913" y2="787.5266" gradientTransform="matrix(1 0 0 -1 0 1080)">
					<stop  offset="5.618000e-03" style="stop-color:#D2844E"/>
					<stop  offset="0.8123" style="stop-color:#E8BE4F"/>
					<stop  offset="1" style="stop-color:#EDCC4F"/>
				</linearGradient>
				<path class="st15" d="M658.4,235.5c0.5,3.7-1.1,7.8-3.7,10.1c-2.9,2.9-6.3,2.3-6.9,2.1h-48c-5.3,0-9.6,5.7-9.6,12.6V325
					c0,6.9,4.3,12.6,9.6,12.6h22.6c5.3,0,9.6,4.8,9.6,10.7c0,5.9-4.3,10.7-9.6,10.7h-42.7c-5.3,0-9.6-5.7-9.6-12.6V238.7
					c0-6.9,4.3-12.6,9.6-12.6H646C652.5,225,657.7,230,658.4,235.5z"/>
				
					<linearGradient id="SVGID_12_" gradientUnits="userSpaceOnUse" x1="570.2" y1="787.5037" x2="658.6804" y2="787.5037" gradientTransform="matrix(1 0 0 -1 0 1080)">
					<stop  offset="5.618000e-03" style="stop-color:#D2844E"/>
					<stop  offset="0.8123" style="stop-color:#E8BE4F"/>
					<stop  offset="1" style="stop-color:#EDCC4F"/>
				</linearGradient>
				<path class="st16" d="M658.6,235.6c0.5,3.7-1.4,7.9-3.8,10c-2.7,2.5-5.9,2.1-6.9,2.1c-6.7-0.6-24-0.5-48,0
					c-5.3,0-9.6,5.7-9.6,12.6V325c0,6.9,4.3,12.6,9.6,12.6h22.6c5.3,0,9.6,4.8,9.6,10.7c0,5.9-4.3,10.7-9.6,10.7h-42.7
					c-0.7,0-4.8-0.4-7.5-4.8c-1.9-3.1-2.1-6.6-2.1-7.8V238.7c0-6.9,4.3-12.6,9.6-12.6h66.3C652.7,225.2,658,230.1,658.6,235.6z"/>
			</g>
			<g>
				
					<linearGradient id="SVGID_13_" gradientUnits="userSpaceOnUse" x1="690.5" y1="844.7" x2="690.5" y2="844.7" gradientTransform="matrix(1 0 0 -1 0 1080)">
					<stop  offset="5.618000e-03" style="stop-color:#D2844E"/>
					<stop  offset="0.8123" style="stop-color:#E8BE4F"/>
					<stop  offset="1" style="stop-color:#EDCC4F"/>
				</linearGradient>
				<path class="st17" d="M690.5,235.3"/>
				
					<linearGradient id="SVGID_14_" gradientUnits="userSpaceOnUse" x1="690.5" y1="844.7" x2="690.5" y2="844.7" gradientTransform="matrix(1 0 0 -1 0 1080)">
					<stop  offset="5.618000e-03" style="stop-color:#D2844E"/>
					<stop  offset="0.8123" style="stop-color:#E8BE4F"/>
					<stop  offset="1" style="stop-color:#EDCC4F"/>
				</linearGradient>
				<path class="st18" d="M690.5,235.3"/>
			</g>
			<g>
				
					<linearGradient id="SVGID_15_" gradientUnits="userSpaceOnUse" x1="582.4" y1="830.6" x2="582.4" y2="830.6" gradientTransform="matrix(1 0 0 -1 0 1080)">
					<stop  offset="5.618000e-03" style="stop-color:#D2844E"/>
					<stop  offset="0.8123" style="stop-color:#E8BE4F"/>
					<stop  offset="1" style="stop-color:#EDCC4F"/>
				</linearGradient>
				<path class="st19" d="M582.4,249.4"/>
				
					<linearGradient id="SVGID_16_" gradientUnits="userSpaceOnUse" x1="582.4" y1="830.6" x2="582.4" y2="830.6" gradientTransform="matrix(1 0 0 -1 0 1080)">
					<stop  offset="5.618000e-03" style="stop-color:#D2844E"/>
					<stop  offset="0.8123" style="stop-color:#E8BE4F"/>
					<stop  offset="1" style="stop-color:#EDCC4F"/>
				</linearGradient>
				<path class="st20" d="M582.4,249.4"/>
			</g>
			
				<linearGradient id="SVGID_17_" gradientUnits="userSpaceOnUse" x1="643.4" y1="782.3" x2="643.4" y2="782.3" gradientTransform="matrix(1 0 0 -1 0 1080)">
				<stop  offset="5.618000e-03" style="stop-color:#D2844E"/>
				<stop  offset="0.8123" style="stop-color:#E8BE4F"/>
				<stop  offset="1" style="stop-color:#EDCC4F"/>
			</linearGradient>
			<path class="st21" d="M643.4,297.7"/>
		</g>
	</g>
</g>
<g>
	
		<image style="overflow:visible;opacity:8.000000e-02;enable-background:new    ;" width="132" height="464" xlink:href="../mm/E2290726.png"  transform="matrix(0.9201 0 0 0.9131 453.8541 233.2836)">
	</image>
	<g>
		
			<linearGradient id="SVGID_18_" gradientUnits="userSpaceOnUse" x1="460.3" y1="642.45" x2="548.6" y2="642.45" gradientTransform="matrix(1 0 0 -1 0 1080)">
			<stop  offset="5.618000e-03" style="stop-color:#D2844E"/>
			<stop  offset="0.8123" style="stop-color:#E8BE4F"/>
			<stop  offset="1" style="stop-color:#EDCC4F"/>
		</linearGradient>
		<path class="st22" d="M548.6,632.7h-75c-7.8-57.1-13.3-122.9-13.3-195.8c0-72.4,5.5-137.8,13.3-194.5c9.1,0,20.6,1,33.7,3.9
			c13.2,2.9,27.4,7.9,40.6,16.3c-7.5,52.2-12.9,112.7-13.1,179.8C534.6,513.9,540.5,577.9,548.6,632.7z"/>
	</g>
</g>
<g>
	
		<image style="overflow:visible;opacity:8.000000e-02;enable-background:new    ;" width="556" height="264" xlink:href="../mm/E2290727.png"  transform="matrix(0.9201 0 0 0.9131 574.3871 415.894)">
	</image>
	<g>
		
			<linearGradient id="SVGID_19_" gradientUnits="userSpaceOnUse" x1="581.5888" y1="550.8" x2="1058.5" y2="550.8" gradientTransform="matrix(1 0 0 -1 0 1080)">
			<stop  offset="5.618000e-03" style="stop-color:#D2844E"/>
			<stop  offset="0.8123" style="stop-color:#E8BE4F"/>
			<stop  offset="1" style="stop-color:#EDCC4F"/>
		</linearGradient>
		<path class="st23" d="M1058.5,437.4c-1.6,7.1-3.6,14-6,20.9c-11.9,34.3-32.8,65.5-60.4,91.8c-7.4,6.9-15.1,13.5-23.3,19.7
			c-0.1,0.1-0.3,0.2-0.4,0.3c-43,32.3-97.6,54.3-158.3,61c-4.6,0.6-9.3,0.9-14.1,1.3c-18.7,1.3-27.8-0.5-50,0
			c-4.9,0.2-8.9,0.4-11.2,0.5H732c0-0.2-0.1-0.3-0.1-0.5H588.1c-4.8-15.3-8.8-37.2-5-62.4c72-0.1,144.2-0.2,216.2-0.3
			c6.1,0.8,13.6,1.4,22.1,0.9c61.4-3.1,142.6-54.6,164.7-135.4v2.1c4.2-3.1,17.2-11.8,35.7-11.8c6.6,0,12.6,1,17.7,2.5
			C1049.2,430.9,1055.8,435.4,1058.5,437.4z"/>
	</g>
</g>
<g>
	
		<image style="overflow:visible;opacity:8.000000e-02;enable-background:new    ;" width="677" height="266" xlink:href="../mm/E2290720.png"  transform="matrix(0.9201 0 0 0.9131 461.2149 141.0654)">
	</image>
	<g>
		
			<linearGradient id="SVGID_20_" gradientUnits="userSpaceOnUse" x1="468.5639" y1="824.8839" x2="1057.2" y2="824.8839" gradientTransform="matrix(1 0 0 -1 0 1080)">
			<stop  offset="5.618000e-03" style="stop-color:#D2844E"/>
			<stop  offset="0.8123" style="stop-color:#E8BE4F"/>
			<stop  offset="1" style="stop-color:#EDCC4F"/>
		</linearGradient>
		<path class="st24" d="M1057.2,347.9c-4.5,3.3-16.7,11.2-34.2,11.9c-20.2,0.7-34.4-8.8-38.6-11.9c0,0.1,0,0.3,0,0.4
			c-20.2-75.1-90.4-133.7-175.7-135.5c0,0.1,0,0.1,0,0.2H548.3v0.4h-74.5c-2.6-7.5-5.6-19.4-5.2-33.9c0.4-12.1,2.9-21.9,5.2-28.8
			c85.5,0,171,0,256.5,0c9.5-0.3,22.9-0.5,39,0c15.3,0.5,30.2,1.2,39.1,2.1c60.1,6.6,114.3,28.2,157.1,60.2c0.2,0.1,0.4,0.3,0.6,0.4
			c8.6,6.4,16.7,13.2,24.3,20.5C1023.9,265.6,1047.5,304.8,1057.2,347.9z"/>
	</g>
</g>
<g class="st25">
	
		<image style="overflow:visible;opacity:8.000000e-02;enable-background:new    ;" width="121" height="41" xlink:href="../mm/E2290721.png"  transform="matrix(0.9201 0 0 0.9131 563.3459 380.2849)">
	</image>
	<g>
		
			<linearGradient id="SVGID_21_" gradientUnits="userSpaceOnUse" x1="570.1823" y1="688.3" x2="647.7178" y2="688.3" gradientTransform="matrix(1 0 0 -1 0 1080)">
			<stop  offset="5.618000e-03" style="stop-color:#D2844E"/>
			<stop  offset="0.8123" style="stop-color:#E8BE4F"/>
			<stop  offset="1" style="stop-color:#EDCC4F"/>
		</linearGradient>
		<line class="st26" x1="647.7" y1="391.2" x2="570.2" y2="392.2"/>
	</g>
</g>
<g class="st27">
	
		<image style="overflow:visible;opacity:8.000000e-02;enable-background:new    ;" width="39" height="115" xlink:href="../mm/E2290722.png"  transform="matrix(0.9201 0 0 0.9131 757.4868 245.1533)">
	</image>
	<g>
		<linearGradient id="SVGID_22_" gradientUnits="userSpaceOnUse" x1="763.9327" y1="290.6" x2="766.6824" y2="290.6">
			<stop  offset="5.618000e-03" style="stop-color:#D2844E"/>
			<stop  offset="0.8123" style="stop-color:#E8BE4F"/>
			<stop  offset="1" style="stop-color:#EDCC4F"/>
		</linearGradient>
		<line class="st28" x1="765.3" y1="255.1" x2="765.3" y2="326.1"/>
	</g>
</g>
<linearGradient id="SVGID_23_" gradientUnits="userSpaceOnUse" x1="763.9327" y1="533.1" x2="766.6824" y2="533.1">
	<stop  offset="5.618000e-03" style="stop-color:#D2844E"/>
	<stop  offset="0.8123" style="stop-color:#E8BE4F"/>
	<stop  offset="1" style="stop-color:#EDCC4F"/>
</linearGradient>
<line class="st29" x1="765.3" y1="505" x2="765.3" y2="561.2"/>
<g>
	
		<image style="overflow:visible;opacity:8.000000e-02;enable-background:new    ;" width="182" height="110" xlink:href="../mm/E2290723.png"  transform="matrix(0.9201 0 0 0.9131 809.9324 349.2412)">
	</image>
	<g>
		
			<linearGradient id="SVGID_24_" gradientUnits="userSpaceOnUse" x1="817.3" y1="687.8" x2="949.7" y2="687.8" gradientTransform="matrix(1 0 0 -1 0 1080)">
			<stop  offset="5.618000e-03" style="stop-color:#D2844E"/>
			<stop  offset="0.8123" style="stop-color:#E8BE4F"/>
			<stop  offset="1" style="stop-color:#EDCC4F"/>
		</linearGradient>
		<ellipse class="st30" cx="883.5" cy="392.2" rx="66.2" ry="32.9"/>
		
			<linearGradient id="SVGID_25_" gradientUnits="userSpaceOnUse" x1="817.3" y1="687.8" x2="949.7" y2="687.8" gradientTransform="matrix(1 0 0 -1 0 1080)">
			<stop  offset="5.618000e-03" style="stop-color:#D2844E"/>
			<stop  offset="0.8123" style="stop-color:#E8BE4F"/>
			<stop  offset="1" style="stop-color:#EDCC4F"/>
		</linearGradient>
		<ellipse class="st31" cx="883.5" cy="392.2" rx="66.2" ry="32.9"/>
	</g>
</g>
<g class="st25">
	
		<image style="overflow:visible;opacity:8.000000e-02;enable-background:new    ;" width="106" height="40" xlink:href="../mm/E2290725.png"  transform="matrix(0.9201 0 0 0.9131 949.7874 381.198)">
	</image>
	<g>
		<linearGradient id="SVGID_26_" gradientUnits="userSpaceOnUse" x1="956.6" y1="392.2" x2="1020.1" y2="392.2">
			<stop  offset="5.618000e-03" style="stop-color:#D2844E"/>
			<stop  offset="0.8123" style="stop-color:#E8BE4F"/>
			<stop  offset="1" style="stop-color:#EDCC4F"/>
		</linearGradient>
		<line class="st32" x1="956.6" y1="392.2" x2="1020.1" y2="392.2"/>
	</g>
</g>
<g>
	
		<image style="overflow:visible;opacity:0.26;enable-background:new    ;" width="349" height="415" xlink:href="B08A1604.png"  transform="matrix(1 0 0 1 1023 376)">
	</image>
	<g>
		
			<linearGradient id="SVGID_27_" gradientUnits="userSpaceOnUse" x1="1027.1193" y1="501.7499" x2="1357.2002" y2="501.7499" gradientTransform="matrix(1 0 0 -1 0 1080)">
			<stop  offset="5.618000e-03" style="stop-color:#D2844E"/>
			<stop  offset="0.8123" style="stop-color:#E8BE4F"/>
			<stop  offset="1" style="stop-color:#EDCC4F"/>
		</linearGradient>
		<path class="st33" d="M1302.9,407.7c-23.1-17.2-51.9-27.4-83.1-27.4h-191.6c-1.3,8.7-1.5,17.9-0.2,27.4h191.8
			c60.4,0,109.4,47.9,109.4,107s-49,107-109.4,107c-21.7,0-42.3,4.9-60.5,13.7c-41.8,20.1-71.6,60.3-76.3,107.7
			c-0.4,4.3-0.6,8.6-0.6,13c0,4,0.2,8,0.5,11.9c9.7,4.7,19.7,7.5,29.4,8.2c-1.3-6.5-1.9-13.2-1.9-20.1c0-4.4,0.3-8.7,0.8-13
			c6.5-53,52.7-94,108.6-94c21.7,0,42.2-4.9,60.5-13.7c45.5-21.9,76.9-67.7,76.9-120.6C1357.1,471,1335.8,432.2,1302.9,407.7z"/>
	</g>
</g>
<linearGradient id="SVGID_28_" gradientUnits="userSpaceOnUse" x1="1039.5" y1="636.8" x2="1058.55" y2="636.8" gradientTransform="matrix(1 0 0 -1 0 1080)">
	<stop  offset="5.618000e-03" style="stop-color:#D2844E"/>
	<stop  offset="0.8123" style="stop-color:#E8BE4F"/>
	<stop  offset="1" style="stop-color:#EDCC4F"/>
</linearGradient>
<path class="st34" d="M1058.5,437.4c-1.6,7.1-3.6,14-6,20.9c-5.9-9.3-12-20.9-13-30.2C1049.2,430.9,1055.8,435.4,1058.5,437.4z"/>
<g>
	
		<image style="overflow:visible;enable-background:new    ;" width="313" height="229" xlink:href="B08A1605.png"  transform="matrix(1 0 0 1 767 432)">
	</image>
</g>
<g>
	
		<image style="overflow:visible;enable-background:new    ;" width="320" height="244" xlink:href="B08A1606.png"  transform="matrix(1 0 0 1 761 120)">
	</image>
</g>
<linearGradient id="SVGID_29_" gradientUnits="userSpaceOnUse" x1="1113" y1="582" x2="1113" y2="582" gradientTransform="matrix(1 0 0 -1 0 1080)">
	<stop  offset="5.618000e-03" style="stop-color:#D2844E"/>
	<stop  offset="0.8123" style="stop-color:#E8BE4F"/>
	<stop  offset="1" style="stop-color:#EDCC4F"/>
</linearGradient>
<path class="st35" d="M1113,498"/>
<g>
	
		<image style="overflow:visible;enable-background:new    ;" width="86" height="105" xlink:href="B08A1603.png"  transform="matrix(1 0 0 1 891 338)">
	</image>
</g>
<g>
	<image style="overflow:visible;" width="172" height="303" xlink:href="B08A1602.png"  transform="matrix(1 0 0 1 1210 356)">
	</image>
</g>
</svg>
