<?xml version="1.0" encoding="utf-8"?>
<!-- Generator: Adobe Illustrator 22.1.0, SVG Export Plug-In . SVG Version: 6.00 Build 0)  -->
<svg version="1.1" id="Capa_1" xmlns="http://www.w3.org/2000/svg" xmlns:xlink="http://www.w3.org/1999/xlink" x="0px" y="0px"
	 viewBox="0 0 1920 1080" style="enable-background:new 0 0 1920 1080;" xml:space="preserve">
<style type="text/css">
	.st0{fill:#00313F;}
	.st1{fill:#0050D4;}
	.st2{opacity:0.86;}
	.st3{fill:none;}
	.st4{font-family:'Gabriola';}
	.st5{font-size:99.2329px;}
	.st6{opacity:0.25;}
	.st7{fill:#567F00;}
	.st8{fill:#00066A;}
	.st9{fill:#2AA7FF;}
	.st10{fill:#E9BC00;}
	.st11{fill:url(#SVGID_1_);}
	.st12{fill:url(#SVGID_2_);}
	.st13{fill:url(#SVGID_3_);}
	.st14{fill:#1800FF;}
	.st15{fill:url(#SVGID_4_);}
	.st16{fill:url(#SVGID_5_);}
	.st17{fill:url(#SVGID_6_);}
	.st18{fill:url(#SVGID_7_);}
	.st19{fill:url(#SVGID_8_);}
	.st20{fill:url(#SVGID_9_);}
	.st21{fill:url(#SVGID_10_);}
	.st22{fill:#1F00D4;}
	.st23{opacity:0.87;}
	.st24{fill:url(#SVGID_11_);}
	.st25{fill:url(#SVGID_12_);}
</style>
<path class="st0" d="M-224,778"/>
<path class="st1" d="M1207.3,124.8"/>
<g class="st2">
	<g>
		<rect x="447.1" y="926.3" class="st3" width="992.2" height="85.4"/>
		<text transform="matrix(1.2305 0 0 1 499.7017 992.0596)" class="st4 st5">Soluciones Informaticas</text>
	</g>
</g>
<g>
	<g class="st6">
		<path d="M831.1,600.7L831.1,600.7z"/>
	</g>
	<g>
		<path class="st7" d="M823.1,590.7L823.1,590.7z"/>
	</g>
</g>
<g>
	<g class="st6">
		<path d="M1145.4,619.7"/>
	</g>
	<g>
		<path class="st8" d="M1137.4,609.7"/>
	</g>
</g>
<path class="st9" d="M985,567.8"/>
<g>
	<g>
		<path class="st10" d="M984.8,321.7v0.4c-3.4-0.2-6.8-0.3-10.2-0.2L984.8,321.7z"/>
	</g>
</g>
<g>
	<g>
		<path class="st7" d="M984.8,321.7v0.4c-3.4-0.2-6.8-0.3-10.2-0.2L984.8,321.7z"/>
	</g>
</g>
<g>
	<g>
		
			<linearGradient id="SVGID_1_" gradientUnits="userSpaceOnUse" x1="915.381" y1="620.9708" x2="1116.5052" y2="620.9708" gradientTransform="matrix(1.0947 -1.265631e-02 -1.370664e-02 -1.1855 -78.5573 1167.6464)">
			<stop  offset="5.618000e-03" style="stop-color:#45546F"/>
			<stop  offset="8.823895e-02" style="stop-color:#515F7A"/>
			<stop  offset="0.2403" style="stop-color:#626E88"/>
			<stop  offset="0.4087" style="stop-color:#6C7790"/>
			<stop  offset="0.6236" style="stop-color:#6F7A93"/>
			<stop  offset="0.7293" style="stop-color:#717C96"/>
			<stop  offset="0.8143" style="stop-color:#7784A0"/>
			<stop  offset="0.892" style="stop-color:#8191B1"/>
			<stop  offset="0.9649" style="stop-color:#8FA3C9"/>
			<stop  offset="1" style="stop-color:#98AED7"/>
		</linearGradient>
		<path class="st11" d="M1134,316.2l1.4,123.5l-145.3,1.7l0.9,79.1c-6.3,0-12.4-0.2-18.4-0.9l-0.9-78l-50.7,0.6
			c-4.6-3.5-5.6-8.6-2.9-12c2.2-2.8,6.2-3.6,7.3-3.7l181-2.1l-1.1-93.1L914,333.5c18.7-9.8,40.3-15.5,63.4-15.8
			c3.5,0,6.9,0,10.3,0.2l0,0L1134,316.2z"/>
	</g>
</g>
<g>
	<g>
		
			<linearGradient id="SVGID_2_" gradientUnits="userSpaceOnUse" x1="854.1633" y1="503.7422" x2="985.7084" y2="502.3379" gradientTransform="matrix(1.0947 -1.265631e-02 -1.370664e-02 -1.1855 -78.5573 1167.6464)">
			<stop  offset="5.618000e-03" style="stop-color:#45546F"/>
			<stop  offset="8.823895e-02" style="stop-color:#515F7A"/>
			<stop  offset="0.2403" style="stop-color:#626E88"/>
			<stop  offset="0.4087" style="stop-color:#6C7790"/>
			<stop  offset="0.6236" style="stop-color:#6F7A93"/>
			<stop  offset="0.7293" style="stop-color:#717C96"/>
			<stop  offset="0.8143" style="stop-color:#7784A0"/>
			<stop  offset="0.892" style="stop-color:#8191B1"/>
			<stop  offset="0.9649" style="stop-color:#8FA3C9"/>
			<stop  offset="1" style="stop-color:#98AED7"/>
		</linearGradient>
		<path class="st12" d="M992.1,525l1.7,144.8L852,671.5l-2.6-223.7c1.4,0.6,3.9,1.6,7.2,2.5c5.3,1.5,9,1.6,10.1,1.8
			c4.2,0.9,7.4,11.2,1.8,55l1.7,147.9l105-1.2L973.7,524C979.7,524.8,985.9,525,992.1,525z"/>
	</g>
</g>
<g>
	<g>
		
			<linearGradient id="SVGID_3_" gradientUnits="userSpaceOnUse" x1="855.3889" y1="646.2972" x2="968.429" y2="646.2972" gradientTransform="matrix(1.0947 -1.265631e-02 -1.370664e-02 -1.1855 -78.5573 1167.6464)">
			<stop  offset="5.618000e-03" style="stop-color:#45546F"/>
			<stop  offset="8.823895e-02" style="stop-color:#515F7A"/>
			<stop  offset="0.2403" style="stop-color:#626E88"/>
			<stop  offset="0.4087" style="stop-color:#6C7790"/>
			<stop  offset="0.6236" style="stop-color:#6F7A93"/>
			<stop  offset="0.7293" style="stop-color:#717C96"/>
			<stop  offset="0.8143" style="stop-color:#7784A0"/>
			<stop  offset="0.892" style="stop-color:#8191B1"/>
			<stop  offset="0.9649" style="stop-color:#8FA3C9"/>
			<stop  offset="1" style="stop-color:#98AED7"/>
		</linearGradient>
		<path class="st13" d="M972.1,335.3L972.1,335.3c0,0.3-0.3,0.5-0.6,0.6c-46.2,6-83.7,31.2-97.9,64.1c-4,9.4-6.1,19.4-6,29.8
			l0.2,14.4c0,0.3-0.3,0.6-0.7,0.6l-16.7,0.2c-0.4,0-0.7-0.2-0.8-0.6c0-0.5,0-1,0-1.5c-0.1-4.6,0.2-9.1,0.6-13.5
			c1.1-10.3,3.6-20.2,7.3-29.6c2.6-6.6,5.8-12.9,9.5-18.9c1.9-3.1,4-6.1,6.3-9.1c11.2-14.8,25.9-27.2,43-36.2
			c0.1-0.1,0.3-0.1,0.4-0.1l54.7-0.6C971.8,334.7,972.1,335,972.1,335.3z"/>
	</g>
</g>
<g>
	<g class="st6">
		<path d="M919.8,478.9L919.8,478.9z"/>
	</g>
	<g>
		<path class="st14" d="M911.8,468.9L911.8,468.9z"/>
	</g>
</g>
<g>
	<g>
		
			<linearGradient id="SVGID_4_" gradientUnits="userSpaceOnUse" x1="736.4978" y1="674.7151" x2="836.127" y2="674.7151" gradientTransform="matrix(1.0947 -1.265631e-02 -1.370664e-02 -1.1855 -78.5573 1167.6464)">
			<stop  offset="5.618000e-03" style="stop-color:#45546F"/>
			<stop  offset="8.823895e-02" style="stop-color:#515F7A"/>
			<stop  offset="0.2403" style="stop-color:#626E88"/>
			<stop  offset="0.4087" style="stop-color:#6C7790"/>
			<stop  offset="0.6236" style="stop-color:#6F7A93"/>
			<stop  offset="0.7293" style="stop-color:#717C96"/>
			<stop  offset="0.8143" style="stop-color:#7784A0"/>
			<stop  offset="0.892" style="stop-color:#8191B1"/>
			<stop  offset="0.9649" style="stop-color:#8FA3C9"/>
			<stop  offset="1" style="stop-color:#98AED7"/>
		</linearGradient>
		<path class="st15" d="M824.3,319.3c0.3,0.3,4.1,4,2.4,8.6c-1.2,3.3-4.8,5.9-9.2,6.7c-26.6,0.3-53.2,0.6-79.9,0.9l0.7,57
			c-5.7,1-12.2,2.2-19.4,3.9l-0.9-75.9L824.3,319.3z"/>
	</g>
</g>
<g>
	<g>
		
			<linearGradient id="SVGID_5_" gradientUnits="userSpaceOnUse" x1="736.5247" y1="624.1764" x2="843.3226" y2="624.1764" gradientTransform="matrix(1.0947 -1.265631e-02 -1.370664e-02 -1.1855 -78.5573 1167.6464)">
			<stop  offset="5.618000e-03" style="stop-color:#45546F"/>
			<stop  offset="8.823895e-02" style="stop-color:#515F7A"/>
			<stop  offset="0.2403" style="stop-color:#626E88"/>
			<stop  offset="0.4087" style="stop-color:#6C7790"/>
			<stop  offset="0.6236" style="stop-color:#6F7A93"/>
			<stop  offset="0.7293" style="stop-color:#717C96"/>
			<stop  offset="0.8143" style="stop-color:#7784A0"/>
			<stop  offset="0.892" style="stop-color:#8191B1"/>
			<stop  offset="0.9649" style="stop-color:#8FA3C9"/>
			<stop  offset="1" style="stop-color:#98AED7"/>
		</linearGradient>
		<path class="st16" d="M832.1,443.2l-112.6,1.3l-0.6-48.7c7.2-1.6,13.6-2.9,19.4-3.8l0.4,36.6l97.4-1.1
			C836.6,431.5,835.5,436.7,832.1,443.2z"/>
	</g>
</g>
<path class="st10" d="M939.6,441.8"/>
<path class="st14" d="M905.7,526.2"/>
<linearGradient id="SVGID_6_" gradientUnits="userSpaceOnUse" x1="792.7242" y1="498.8725" x2="792.7242" y2="498.8725" gradientTransform="matrix(1.0947 -1.265631e-02 -1.370664e-02 -1.1855 -78.5573 1167.6464)">
	<stop  offset="0" style="stop-color:#7E181A"/>
	<stop  offset="0.5" style="stop-color:#A2675F"/>
	<stop  offset="0.6156" style="stop-color:#884C47"/>
	<stop  offset="0.7731" style="stop-color:#6B2D2C"/>
	<stop  offset="0.9068" style="stop-color:#591A1B"/>
	<stop  offset="1" style="stop-color:#531315"/>
</linearGradient>
<path class="st17" d="M782.4,566.2"/>
<g>
	<g>
		
			<linearGradient id="SVGID_7_" gradientUnits="userSpaceOnUse" x1="534" y1="843.8" x2="1281.9746" y2="843.8" gradientTransform="matrix(1 0 0 -1 0 1080)">
			<stop  offset="5.618000e-03" style="stop-color:#45546F"/>
			<stop  offset="8.823895e-02" style="stop-color:#515F7A"/>
			<stop  offset="0.2403" style="stop-color:#626E88"/>
			<stop  offset="0.4087" style="stop-color:#6C7790"/>
			<stop  offset="0.6236" style="stop-color:#6F7A93"/>
			<stop  offset="0.7293" style="stop-color:#717C96"/>
			<stop  offset="0.8143" style="stop-color:#7784A0"/>
			<stop  offset="0.892" style="stop-color:#8191B1"/>
			<stop  offset="0.9649" style="stop-color:#8FA3C9"/>
			<stop  offset="1" style="stop-color:#98AED7"/>
		</linearGradient>
		<path class="st18" d="M1191.5,371.5c-7-16.6-16.3-32.2-27.4-46.6c-44-56.8-117.6-94-200.8-94H534v-130c0,0,662,50.7,733.4,130
			c3.7,4,7.2,8.2,10.6,12.4C1294.1,262.8,1260.5,350.2,1191.5,371.5z"/>
	</g>
</g>
<g>
	<g>
		
			<linearGradient id="SVGID_8_" gradientUnits="userSpaceOnUse" x1="702.9971" y1="479.85" x2="1352.4" y2="479.85" gradientTransform="matrix(1 0 0 -1 0 1080)">
			<stop  offset="5.618000e-03" style="stop-color:#45546F"/>
			<stop  offset="8.823895e-02" style="stop-color:#515F7A"/>
			<stop  offset="0.2403" style="stop-color:#626E88"/>
			<stop  offset="0.4087" style="stop-color:#6C7790"/>
			<stop  offset="0.6236" style="stop-color:#6F7A93"/>
			<stop  offset="0.7293" style="stop-color:#717C96"/>
			<stop  offset="0.8143" style="stop-color:#7784A0"/>
			<stop  offset="0.892" style="stop-color:#8191B1"/>
			<stop  offset="0.9649" style="stop-color:#8FA3C9"/>
			<stop  offset="1" style="stop-color:#98AED7"/>
		</linearGradient>
		<path class="st19" d="M1352.4,503.9c0,166.2-148.4,303.3-340.2,323.4c-16,1.7-32.2,2.5-48.8,2.5H720.1
			c-6.9-11.6-16.9-32.7-17.1-60.1c-0.2-28.4,10.2-50.2,17.1-61.9c81.1,0,162.2,0,243.4,0c134.4,0,243.4-91.3,243.4-204
			c0-25.4-5.5-49.7-15.6-72.1c68.8-20,107.2-41.3,127.3-61.2C1340.3,411.3,1352.4,456.4,1352.4,503.9z"/>
	</g>
</g>
<g>
	<g>
		
			<linearGradient id="SVGID_9_" gradientUnits="userSpaceOnUse" x1="533.9" y1="659.4918" x2="684.4" y2="659.4918" gradientTransform="matrix(1 0 0 -1 0 1080)">
			<stop  offset="5.618000e-03" style="stop-color:#45546F"/>
			<stop  offset="8.823895e-02" style="stop-color:#515F7A"/>
			<stop  offset="0.2403" style="stop-color:#626E88"/>
			<stop  offset="0.4087" style="stop-color:#6C7790"/>
			<stop  offset="0.6236" style="stop-color:#6F7A93"/>
			<stop  offset="0.7293" style="stop-color:#717C96"/>
			<stop  offset="0.8143" style="stop-color:#7784A0"/>
			<stop  offset="0.892" style="stop-color:#8191B1"/>
			<stop  offset="0.9649" style="stop-color:#8FA3C9"/>
			<stop  offset="1" style="stop-color:#98AED7"/>
		</linearGradient>
		<path class="st20" d="M684.4,274.1c-9,33.5-16.8,75.7-17.7,124.6c-1,57,7.7,105.7,17.7,142.8c-17.6,10.3-44,21.8-77.3,32.3
			c-25.9,8.1-51.1,12.8-73.2,11.5V274.1c11.2-6,33.8-16.3,64.9-18.3C641.8,253.2,673.5,268.3,684.4,274.1z"/>
	</g>
</g>
<g>
	<g>
		
			<linearGradient id="SVGID_10_" gradientUnits="userSpaceOnUse" x1="534" y1="376.65" x2="684" y2="376.65" gradientTransform="matrix(1 0 0 -1 0 1080)">
			<stop  offset="5.618000e-03" style="stop-color:#45546F"/>
			<stop  offset="8.823895e-02" style="stop-color:#515F7A"/>
			<stop  offset="0.2403" style="stop-color:#626E88"/>
			<stop  offset="0.4087" style="stop-color:#6C7790"/>
			<stop  offset="0.6236" style="stop-color:#6F7A93"/>
			<stop  offset="0.7293" style="stop-color:#717C96"/>
			<stop  offset="0.8143" style="stop-color:#7784A0"/>
			<stop  offset="0.892" style="stop-color:#8191B1"/>
			<stop  offset="0.9649" style="stop-color:#8FA3C9"/>
			<stop  offset="1" style="stop-color:#98AED7"/>
		</linearGradient>
		<path class="st21" d="M684,571.3v264.1H534V615.1C578.1,617.8,634.4,596.4,684,571.3z"/>
	</g>
</g>
<g>
	<g class="st6">
		<path d="M1101.6,403.5L1101.6,403.5z"/>
	</g>
	<g>
		<path class="st22" d="M1093.6,397.5L1093.6,397.5z"/>
	</g>
</g>
<g class="st23">
</g>
<g class="st2">
	<g>
		<rect x="635.3" y="844" class="st3" width="579.7" height="112.6"/>
		<text transform="matrix(1.2305 0 0 1 748.9287 909.7686)" class="st4 st5">DEVTICS</text>
	</g>
</g>
<linearGradient id="SVGID_11_" gradientUnits="userSpaceOnUse" x1="1010" y1="968" x2="1010" y2="968" gradientTransform="matrix(1 0 0 -1 0 1080)">
	<stop  offset="5.618000e-03" style="stop-color:#45546F"/>
	<stop  offset="8.823895e-02" style="stop-color:#515F7A"/>
	<stop  offset="0.2403" style="stop-color:#626E88"/>
	<stop  offset="0.4087" style="stop-color:#6C7790"/>
	<stop  offset="0.6236" style="stop-color:#6F7A93"/>
	<stop  offset="0.7293" style="stop-color:#717C96"/>
	<stop  offset="0.8143" style="stop-color:#7784A0"/>
	<stop  offset="0.892" style="stop-color:#8191B1"/>
	<stop  offset="0.9649" style="stop-color:#8FA3C9"/>
	<stop  offset="1" style="stop-color:#98AED7"/>
</linearGradient>
<path class="st24" d="M1010,112"/>
<linearGradient id="SVGID_12_" gradientUnits="userSpaceOnUse" x1="1042" y1="968" x2="1042" y2="968" gradientTransform="matrix(1 0 0 -1 0 1080)">
	<stop  offset="5.618000e-03" style="stop-color:#45546F"/>
	<stop  offset="8.823895e-02" style="stop-color:#515F7A"/>
	<stop  offset="0.2403" style="stop-color:#626E88"/>
	<stop  offset="0.4087" style="stop-color:#6C7790"/>
	<stop  offset="0.6236" style="stop-color:#6F7A93"/>
	<stop  offset="0.7293" style="stop-color:#717C96"/>
	<stop  offset="0.8143" style="stop-color:#7784A0"/>
	<stop  offset="0.892" style="stop-color:#8191B1"/>
	<stop  offset="0.9649" style="stop-color:#8FA3C9"/>
	<stop  offset="1" style="stop-color:#98AED7"/>
</linearGradient>
<path class="st25" d="M1042,112"/>
</svg>
