<?xml version="1.0" encoding="utf-8"?>
<!-- Generator: Adobe Illustrator 22.1.0, SVG Export Plug-In . SVG Version: 6.00 Build 0)  -->
<svg version="1.1" id="Capa_1" xmlns="http://www.w3.org/2000/svg" xmlns:xlink="http://www.w3.org/1999/xlink" x="0px" y="0px"
	 viewBox="0 0 1920 1080" style="enable-background:new 0 0 1920 1080;" xml:space="preserve">
<style type="text/css">
	.st0{fill:#D47F55;stroke:#FFFFFF;stroke-miterlimit:10;}
	.st1{fill:url(#SVGID_1_);}
	.st2{fill:url(#SVGID_2_);stroke:#FFFFFF;stroke-miterlimit:10;}
	.st3{fill:url(#SVGID_3_);stroke:#FFFFFF;stroke-width:0.3473;stroke-miterlimit:10;}
	.st4{fill:url(#SVGID_4_);stroke:#FFFFFF;stroke-miterlimit:10;}
	.st5{fill:url(#SVGID_5_);stroke:#FFFFFF;stroke-width:0.3473;stroke-miterlimit:10;}
	.st6{fill:url(#SVGID_6_);stroke:#FFFFFF;stroke-miterlimit:10;}
	.st7{fill:url(#SVGID_7_);stroke:#FFFFFF;stroke-width:0.3151;stroke-miterlimit:10;}
	.st8{fill:url(#SVGID_8_);stroke:#FFFFFF;stroke-miterlimit:10;}
	.st9{fill:url(#SVGID_9_);stroke:#FFFFFF;stroke-width:0.3151;stroke-miterlimit:10;}
	.st10{fill:url(#SVGID_10_);stroke:#FFFFFF;stroke-miterlimit:10;}
	.st11{fill:url(#SVGID_11_);stroke:#FFFFFF;stroke-width:0.3151;stroke-miterlimit:10;}
	.st12{fill:url(#SVGID_12_);stroke:#FFFFFF;stroke-miterlimit:10;}
	.st13{fill:url(#SVGID_13_);stroke:#FFFFFF;stroke-width:0.3151;stroke-miterlimit:10;}
	.st14{fill:url(#SVGID_14_);stroke:#FFFFFF;stroke-width:0.3151;stroke-miterlimit:10;}
	.st15{fill:url(#SVGID_15_);}
	.st16{fill:#FFFFFF;stroke:#FFFFFF;stroke-width:0.9049;stroke-miterlimit:10;}
	.st17{fill:#FFFFFF;stroke:#FFFFFF;stroke-width:0.6738;stroke-miterlimit:10;}
	.st18{fill:#FFFFFF;stroke:#FFFFFF;stroke-width:2.3129;stroke-miterlimit:10;}
	.st19{fill:#FFFFFF;stroke:#FFFFFF;stroke-width:3.0052;stroke-miterlimit:10;}
	.st20{fill:url(#SVGID_16_);}
	.st21{fill:url(#SVGID_17_);}
	.st22{opacity:0.54;enable-background:new    ;}
	.st23{fill:none;stroke:#FFFFFF;stroke-width:3;stroke-miterlimit:10;}
	.st24{opacity:0.53;enable-background:new    ;}
	.st25{fill:none;stroke:url(#SVGID_18_);stroke-width:3;stroke-miterlimit:10;}
	.st26{opacity:0.54;stroke:url(#SVGID_19_);stroke-width:3;stroke-miterlimit:10;enable-background:new    ;}
	.st27{fill:url(#SVGID_20_);}
	.st28{fill:none;stroke:#FFFFFF;stroke-miterlimit:10;}
	.st29{opacity:0.89;}
	.st30{stroke:#FFFFFF;stroke-width:0.75;stroke-miterlimit:10;}
	.st31{fill:none;stroke:url(#SVGID_21_);stroke-width:3;stroke-miterlimit:10;}
	.st32{fill:url(#SVGID_22_);stroke:#FFFFFF;stroke-miterlimit:10;}
	.st33{stroke:#FFFFFF;}
	.st34{font-family:'Bauhaus93';}
	.st35{font-size:72px;}
	.st36{font-size:136.5948px;}
</style>
<path class="st0" d="M1722.5,423.5"/>
<linearGradient id="SVGID_1_" gradientUnits="userSpaceOnUse" x1="197" y1="546" x2="197" y2="546" gradientTransform="matrix(1 0 0 -1 0 1080)">
	<stop  offset="0" style="stop-color:#FEF050"/>
	<stop  offset="4.468424e-02" style="stop-color:#F5E15E"/>
	<stop  offset="0.1199" style="stop-color:#E9CE6E"/>
	<stop  offset="0.1974" style="stop-color:#E2C379"/>
	<stop  offset="0.28" style="stop-color:#E0BF7C"/>
	<stop  offset="0.67" style="stop-color:#CA9589"/>
	<stop  offset="0.89" style="stop-color:#B8738F"/>
	<stop  offset="1" style="stop-color:#A33388"/>
</linearGradient>
<path class="st1" d="M197,534"/>
<g>
	
		<image style="overflow:visible;opacity:8.000000e-02;" width="336" height="329" xlink:href="E2290728.png"  transform="matrix(1 0 0 1 455 208)">
	</image>
	<g>
		<g>
			<g>
				
					<linearGradient id="SVGID_2_" gradientUnits="userSpaceOnUse" x1="499.4482" y1="704.841" x2="499.4482" y2="704.841" gradientTransform="matrix(1 0 0 -1 0 1080)">
					<stop  offset="0" style="stop-color:#FEF050"/>
					<stop  offset="4.468424e-02" style="stop-color:#F5E15E"/>
					<stop  offset="0.1199" style="stop-color:#E9CE6E"/>
					<stop  offset="0.1974" style="stop-color:#E2C379"/>
					<stop  offset="0.28" style="stop-color:#E0BF7C"/>
					<stop  offset="0.67" style="stop-color:#CA9589"/>
					<stop  offset="0.89" style="stop-color:#B8738F"/>
					<stop  offset="1" style="stop-color:#A33388"/>
				</linearGradient>
				<path class="st2" d="M499.4,375.2"/>
				
					<linearGradient id="SVGID_3_" gradientUnits="userSpaceOnUse" x1="499.4482" y1="704.841" x2="499.4482" y2="704.841" gradientTransform="matrix(1 0 0 -1 0 1080)">
					<stop  offset="0" style="stop-color:#FEF050"/>
					<stop  offset="4.468424e-02" style="stop-color:#F5E15E"/>
					<stop  offset="0.1199" style="stop-color:#E9CE6E"/>
					<stop  offset="0.1974" style="stop-color:#E2C379"/>
					<stop  offset="0.28" style="stop-color:#E0BF7C"/>
					<stop  offset="0.67" style="stop-color:#CA9589"/>
					<stop  offset="0.89" style="stop-color:#B8738F"/>
					<stop  offset="1" style="stop-color:#A33388"/>
				</linearGradient>
				<path class="st3" d="M499.4,375.2"/>
			</g>
			<g>
				
					<linearGradient id="SVGID_4_" gradientUnits="userSpaceOnUse" x1="533.2051" y1="727.4619" x2="533.2051" y2="727.4619" gradientTransform="matrix(1 0 0 -1 0 1080)">
					<stop  offset="0" style="stop-color:#FEF050"/>
					<stop  offset="4.468424e-02" style="stop-color:#F5E15E"/>
					<stop  offset="0.1199" style="stop-color:#E9CE6E"/>
					<stop  offset="0.1974" style="stop-color:#E2C379"/>
					<stop  offset="0.28" style="stop-color:#E0BF7C"/>
					<stop  offset="0.67" style="stop-color:#CA9589"/>
					<stop  offset="0.89" style="stop-color:#B8738F"/>
					<stop  offset="1" style="stop-color:#A33388"/>
				</linearGradient>
				<path class="st4" d="M533.2,352.5"/>
				
					<linearGradient id="SVGID_5_" gradientUnits="userSpaceOnUse" x1="533.2051" y1="727.4619" x2="533.2051" y2="727.4619" gradientTransform="matrix(1 0 0 -1 0 1080)">
					<stop  offset="0" style="stop-color:#FEF050"/>
					<stop  offset="4.468424e-02" style="stop-color:#F5E15E"/>
					<stop  offset="0.1199" style="stop-color:#E9CE6E"/>
					<stop  offset="0.1974" style="stop-color:#E2C379"/>
					<stop  offset="0.28" style="stop-color:#E0BF7C"/>
					<stop  offset="0.67" style="stop-color:#CA9589"/>
					<stop  offset="0.89" style="stop-color:#B8738F"/>
					<stop  offset="1" style="stop-color:#A33388"/>
				</linearGradient>
				<path class="st5" d="M533.2,352.5"/>
			</g>
			<g>
				
					<linearGradient id="SVGID_6_" gradientUnits="userSpaceOnUse" x1="559.1721" y1="715.4446" x2="761.2606" y2="715.4446" gradientTransform="matrix(1 0 0 -1 0 1080)">
					<stop  offset="0" style="stop-color:#FEF050"/>
					<stop  offset="4.468424e-02" style="stop-color:#F5E15E"/>
					<stop  offset="0.1199" style="stop-color:#E9CE6E"/>
					<stop  offset="0.1974" style="stop-color:#E2C379"/>
					<stop  offset="0.28" style="stop-color:#E0BF7C"/>
					<stop  offset="0.67" style="stop-color:#CA9589"/>
					<stop  offset="0.89" style="stop-color:#B8738F"/>
					<stop  offset="1" style="stop-color:#A33388"/>
				</linearGradient>
				<path class="st6" d="M676,219.5c-5.8,0-15.1,0.5-20.8,1.4c0,0-16.6,2.1-28.7,8.5c-7.8,4.1-15.1,9.4-21.8,15.6
					c-23.7,22.1-40.2,56.6-44.4,96.3c-0.8,6.5-1.1,13.4-1.1,20.1c0,1.1,0,2.1,0,3.2l0,0c0.2,0,0.3,6.2,0.3,13.8v117.9
					c0,7.6,4.7,13.8,10.4,13.8h113.5c5.8,0,10.4-6.2,10.4-13.8V378.3c0-7.6,4.7-13.8,10.4-13.8h46.4c5.8,0,10.4-6.2,10.4-13.8V232.9
					c0-7.6-4.7-13.8-10.4-13.8H676V219.5z M739.6,327.4c0,7.6-4.7,13.8-10.4,13.8h-91.8c-5.8,0-10.4,5.3-10.4,11.7
					c0,6.5,4.7,11.7,10.4,11.7h24.4c5.8,0,10.4,6.2,10.4,13.8v95.1c0,7.6-4.7,13.8-10.4,13.8h-70.1c-5.8,0-10.4-6.2-10.4-13.8v-95.1
					c0-7.6,0.2-20,0.5-27.4c0,0,0-2.1,1.2-9.7c3.2-22.8,11-43.5,22.1-60.3c6.3-9.5,13.6-17.8,21.8-24.6c6.7-5.7,12.1-8.3,12.1-8.3
					c5.3-2.8,9.8-5.1,9.8-5.1s4.7,0,10.4,0h70.1c5.8,0,10.4,6.2,10.4,13.8v70.7H739.6z"/>
				
					<linearGradient id="SVGID_7_" gradientUnits="userSpaceOnUse" x1="559.1721" y1="715.4446" x2="761.2606" y2="715.4446" gradientTransform="matrix(1 0 0 -1 0 1080)">
					<stop  offset="0" style="stop-color:#FEF050"/>
					<stop  offset="4.468424e-02" style="stop-color:#F5E15E"/>
					<stop  offset="0.1199" style="stop-color:#E9CE6E"/>
					<stop  offset="0.1974" style="stop-color:#E2C379"/>
					<stop  offset="0.28" style="stop-color:#E0BF7C"/>
					<stop  offset="0.67" style="stop-color:#CA9589"/>
					<stop  offset="0.89" style="stop-color:#B8738F"/>
					<stop  offset="1" style="stop-color:#A33388"/>
				</linearGradient>
				<path class="st7" d="M676,219.5c-5.8,0-15.1,0.5-20.8,1.4c0,0-16.6,2.1-28.7,8.5c-7.8,4.1-15.1,9.4-21.8,15.6
					c-23.7,22.1-40.2,56.6-44.4,96.3c-0.8,6.5-1.1,13.4-1.1,20.1c0,1.1,0,2.1,0,3.2l0,0c0.2,0,0.3,6.2,0.3,13.8v117.9
					c0,7.6,4.7,13.8,10.4,13.8h113.5c5.8,0,10.4-6.2,10.4-13.8V378.3c0-7.6,4.7-13.8,10.4-13.8h46.4c5.8,0,10.4-6.2,10.4-13.8V232.9
					c0-7.6-4.7-13.8-10.4-13.8H676V219.5z M739.6,327.4c0,7.6-4.7,13.8-10.4,13.8h-91.8c-5.8,0-10.4,5.3-10.4,11.7
					c0,6.5,4.7,11.7,10.4,11.7h24.4c5.8,0,10.4,6.2,10.4,13.8v95.1c0,7.6-4.7,13.8-10.4,13.8h-70.1c-5.8,0-10.4-6.2-10.4-13.8v-95.1
					c0-7.6,0.2-20,0.5-27.4c0,0,0-2.1,1.2-9.7c3.2-22.8,11-43.5,22.1-60.3c6.3-9.5,13.6-17.8,21.8-24.6c6.7-5.7,12.1-8.3,12.1-8.3
					c5.3-2.8,9.8-5.1,9.8-5.1s4.7,0,10.4,0h70.1c5.8,0,10.4,6.2,10.4,13.8v70.7H739.6z"/>
			</g>
			<g>
				
					<linearGradient id="SVGID_8_" gradientUnits="userSpaceOnUse" x1="463.4" y1="788.2549" x2="559.3997" y2="788.2549" gradientTransform="matrix(1 0 0 -1 0 1080)">
					<stop  offset="0" style="stop-color:#FEF050"/>
					<stop  offset="4.468424e-02" style="stop-color:#F5E15E"/>
					<stop  offset="0.1199" style="stop-color:#E9CE6E"/>
					<stop  offset="0.1974" style="stop-color:#E2C379"/>
					<stop  offset="0.28" style="stop-color:#E0BF7C"/>
					<stop  offset="0.67" style="stop-color:#CA9589"/>
					<stop  offset="0.89" style="stop-color:#B8738F"/>
					<stop  offset="1" style="stop-color:#A33388"/>
				</linearGradient>
				<path class="st8" d="M559.3,229.4c0.5,4.1-1.2,8.5-4,11.1c-3.2,3.2-6.9,2.5-7.5,2.3h-52.2c-5.8,0-10.4,6.2-10.4,13.8v70.9
					c0,7.6,4.7,13.8,10.4,13.8h24.6c5.8,0,10.4,5.3,10.4,11.7c0,6.5-4.7,11.7-10.4,11.7h-46.4c-5.8,0-10.4-6.2-10.4-13.8V232.9
					c0-7.6,4.7-13.8,10.4-13.8h72.1C552.9,217.9,558.6,223.4,559.3,229.4z"/>
				
					<linearGradient id="SVGID_9_" gradientUnits="userSpaceOnUse" x1="463.4" y1="788.233" x2="559.5435" y2="788.233" gradientTransform="matrix(1 0 0 -1 0 1080)">
					<stop  offset="0" style="stop-color:#FEF050"/>
					<stop  offset="4.468424e-02" style="stop-color:#F5E15E"/>
					<stop  offset="0.1199" style="stop-color:#E9CE6E"/>
					<stop  offset="0.1974" style="stop-color:#E2C379"/>
					<stop  offset="0.28" style="stop-color:#E0BF7C"/>
					<stop  offset="0.67" style="stop-color:#CA9589"/>
					<stop  offset="0.89" style="stop-color:#B8738F"/>
					<stop  offset="1" style="stop-color:#A33388"/>
				</linearGradient>
				<path class="st9" d="M559.5,229.5c0.5,4.1-1.5,8.7-4.1,11c-2.9,2.7-6.4,2.3-7.5,2.3c-7.3-0.7-26.1-0.5-52.2,0
					c-5.8,0-10.4,6.2-10.4,13.8v70.9c0,7.6,4.7,13.8,10.4,13.8h24.6c5.8,0,10.4,5.3,10.4,11.7c0,6.5-4.7,11.7-10.4,11.7h-46.4
					c-0.8,0-5.2-0.4-8.1-5.3c-2.1-3.4-2.3-7.2-2.3-8.5V232.9c0-7.6,4.7-13.8,10.4-13.8h72.1C553.1,218.1,558.9,223.5,559.5,229.5z"
					/>
			</g>
			<g>
				
					<linearGradient id="SVGID_10_" gradientUnits="userSpaceOnUse" x1="594.1509" y1="850.8159" x2="594.1509" y2="850.8159" gradientTransform="matrix(1 0 0 -1 0 1080)">
					<stop  offset="0" style="stop-color:#FEF050"/>
					<stop  offset="4.468424e-02" style="stop-color:#F5E15E"/>
					<stop  offset="0.1199" style="stop-color:#E9CE6E"/>
					<stop  offset="0.1974" style="stop-color:#E2C379"/>
					<stop  offset="0.28" style="stop-color:#E0BF7C"/>
					<stop  offset="0.67" style="stop-color:#CA9589"/>
					<stop  offset="0.89" style="stop-color:#B8738F"/>
					<stop  offset="1" style="stop-color:#A33388"/>
				</linearGradient>
				<path class="st10" d="M594.2,229.2"/>
				
					<linearGradient id="SVGID_11_" gradientUnits="userSpaceOnUse" x1="594.1509" y1="850.8159" x2="594.1509" y2="850.8159" gradientTransform="matrix(1 0 0 -1 0 1080)">
					<stop  offset="0" style="stop-color:#FEF050"/>
					<stop  offset="4.468424e-02" style="stop-color:#F5E15E"/>
					<stop  offset="0.1199" style="stop-color:#E9CE6E"/>
					<stop  offset="0.1974" style="stop-color:#E2C379"/>
					<stop  offset="0.28" style="stop-color:#E0BF7C"/>
					<stop  offset="0.67" style="stop-color:#CA9589"/>
					<stop  offset="0.89" style="stop-color:#B8738F"/>
					<stop  offset="1" style="stop-color:#A33388"/>
				</linearGradient>
				<path class="st11" d="M594.2,229.2"/>
			</g>
			<g>
				
					<linearGradient id="SVGID_12_" gradientUnits="userSpaceOnUse" x1="476.6889" y1="835.264" x2="476.6889" y2="835.264" gradientTransform="matrix(1 0 0 -1 0 1080)">
					<stop  offset="0" style="stop-color:#FEF050"/>
					<stop  offset="4.468424e-02" style="stop-color:#F5E15E"/>
					<stop  offset="0.1199" style="stop-color:#E9CE6E"/>
					<stop  offset="0.1974" style="stop-color:#E2C379"/>
					<stop  offset="0.28" style="stop-color:#E0BF7C"/>
					<stop  offset="0.67" style="stop-color:#CA9589"/>
					<stop  offset="0.89" style="stop-color:#B8738F"/>
					<stop  offset="1" style="stop-color:#A33388"/>
				</linearGradient>
				<path class="st12" d="M476.7,244.7"/>
				
					<linearGradient id="SVGID_13_" gradientUnits="userSpaceOnUse" x1="476.6889" y1="835.264" x2="476.6889" y2="835.264" gradientTransform="matrix(1 0 0 -1 0 1080)">
					<stop  offset="0" style="stop-color:#FEF050"/>
					<stop  offset="4.468424e-02" style="stop-color:#F5E15E"/>
					<stop  offset="0.1199" style="stop-color:#E9CE6E"/>
					<stop  offset="0.1974" style="stop-color:#E2C379"/>
					<stop  offset="0.28" style="stop-color:#E0BF7C"/>
					<stop  offset="0.67" style="stop-color:#CA9589"/>
					<stop  offset="0.89" style="stop-color:#B8738F"/>
					<stop  offset="1" style="stop-color:#A33388"/>
				</linearGradient>
				<path class="st13" d="M476.7,244.7"/>
			</g>
			
				<linearGradient id="SVGID_14_" gradientUnits="userSpaceOnUse" x1="542.9809" y1="782.4233" x2="542.9809" y2="782.4233" gradientTransform="matrix(1 0 0 -1 0 1080)">
				<stop  offset="0" style="stop-color:#FEF050"/>
				<stop  offset="4.468424e-02" style="stop-color:#F5E15E"/>
				<stop  offset="0.1199" style="stop-color:#E9CE6E"/>
				<stop  offset="0.1974" style="stop-color:#E2C379"/>
				<stop  offset="0.28" style="stop-color:#E0BF7C"/>
				<stop  offset="0.67" style="stop-color:#CA9589"/>
				<stop  offset="0.89" style="stop-color:#B8738F"/>
				<stop  offset="1" style="stop-color:#A33388"/>
			</linearGradient>
			<path class="st14" d="M543,297.6"/>
		</g>
	</g>
</g>
<g>
	
		<image style="overflow:visible;opacity:8.000000e-02;" width="132" height="464" xlink:href="E2290726.png"  transform="matrix(1 0 0 1 337 227)">
	</image>
	<g>
		
			<linearGradient id="SVGID_15_" gradientUnits="userSpaceOnUse" x1="344" y1="629.25" x2="440" y2="629.25" gradientTransform="matrix(1 0 0 -1 0 1080)">
			<stop  offset="0" style="stop-color:#FEF050"/>
			<stop  offset="4.468424e-02" style="stop-color:#F5E15E"/>
			<stop  offset="0.1199" style="stop-color:#E9CE6E"/>
			<stop  offset="0.1974" style="stop-color:#E2C379"/>
			<stop  offset="0.28" style="stop-color:#E0BF7C"/>
			<stop  offset="0.67" style="stop-color:#CA9589"/>
			<stop  offset="0.89" style="stop-color:#B8738F"/>
			<stop  offset="1" style="stop-color:#A33388"/>
		</linearGradient>
		<path class="st15" d="M440,664.5h-81.5C350,602,344,529.9,344,450c0-79.3,6-150.9,14.5-213c9.9,0,22.4,1.1,36.6,4.3
			c14.3,3.2,29.8,8.7,44.1,17.9c-8.2,57.2-14,123.4-14.2,196.9C424.8,534.3,431.2,604.4,440,664.5z"/>
	</g>
</g>
<path class="st16" d="M733.7,622h-15.3v-1.4C723.5,621.2,728.6,621.7,733.7,622z"/>
<path class="st17" d="M788.1,622c-0.4,0-0.8,0.1-1.2,0.1c-8.6,0.6-17.3,0.9-26,0.9c-8.8,0-17.5-0.3-26.1-0.9c-0.4,0-0.8,0-1.2-0.1
	H788.1z"/>
<path class="st18" d="M733.7,622h-15.3v-1.4C723.5,621.2,728.6,621.7,733.7,622z"/>
<path class="st18" d="M803.5,620.6v1.4h-15.3C793.3,621.7,798.4,621.2,803.5,620.6z"/>
<path class="st19" d="M718.4,620.6v1.4h15.3C728.6,621.7,723.5,621.2,718.4,620.6z M733.7,622c0.4,0,0.8,0.1,1.2,0.1
	c8.6,0.6,17.3,0.9,26.1,0.9s17.5-0.3,26-0.9c0.4,0,0.8,0,1.2-0.1H733.7z M788.1,622h15.3v-1.4C798.4,621.2,793.3,621.7,788.1,622z"
	/>
<g>
	
		<image style="overflow:visible;opacity:8.000000e-02;" width="556" height="264" xlink:href="E2290727.png"  transform="matrix(1 0 0 1 468 427)">
	</image>
	<g>
		
			<linearGradient id="SVGID_16_" gradientUnits="userSpaceOnUse" x1="475.8235" y1="528.8961" x2="994.2" y2="528.8961" gradientTransform="matrix(1 0 0 -1 0 1080)">
			<stop  offset="0" style="stop-color:#FEF050"/>
			<stop  offset="4.468424e-02" style="stop-color:#F5E15E"/>
			<stop  offset="0.1199" style="stop-color:#E9CE6E"/>
			<stop  offset="0.1974" style="stop-color:#E2C379"/>
			<stop  offset="0.28" style="stop-color:#E0BF7C"/>
			<stop  offset="0.67" style="stop-color:#CA9589"/>
			<stop  offset="0.89" style="stop-color:#B8738F"/>
			<stop  offset="1" style="stop-color:#A33388"/>
		</linearGradient>
		<path class="st20" d="M915.5,450.5v-2.3c-24,88.5-112.3,144.9-179,148.3c-9.2,0.5-17.4-0.1-24-1c-78.3,0.1-156.7,0.2-235,0.3
			c-4.2,27.6,0.2,51.5,5.4,68.3h156.4c0,0.2,0.1,0.3,0.1,0.5h3c2.5-0.1,6.9-0.3,12.2-0.5c24.2-0.6,34.1,1.4,54.4,0
			c5.2-0.4,10.3-0.8,15.3-1.4c65.9-7.3,125.3-31.4,172-66.8c0.1-0.1,0.3-0.2,0.4-0.3c8.9-6.8,17.3-14,25.3-21.6
			c36-34.5,61.5-76.8,72.2-123.4c-4.5-3.4-19-13.1-39.9-13C934.2,437.6,920.1,447.1,915.5,450.5z"/>
	</g>
</g>
<g>
	
		<image style="overflow:visible;opacity:8.000000e-02;" width="677" height="266" xlink:href="E2290720.png"  transform="matrix(1 0 0 1 345 126)">
	</image>
	<g>
		
			<linearGradient id="SVGID_17_" gradientUnits="userSpaceOnUse" x1="352.9669" y1="829.1304" x2="992.7" y2="829.1304" gradientTransform="matrix(1 0 0 -1 0 1080)">
			<stop  offset="0" style="stop-color:#FEF050"/>
			<stop  offset="4.468424e-02" style="stop-color:#F5E15E"/>
			<stop  offset="0.1199" style="stop-color:#E9CE6E"/>
			<stop  offset="0.1974" style="stop-color:#E2C379"/>
			<stop  offset="0.28" style="stop-color:#E0BF7C"/>
			<stop  offset="0.67" style="stop-color:#CA9589"/>
			<stop  offset="0.89" style="stop-color:#B8738F"/>
			<stop  offset="1" style="stop-color:#A33388"/>
		</linearGradient>
		<path class="st21" d="M992.7,352.5c-4.9,3.6-18.1,12.3-37.2,13c-22,0.8-37.4-9.6-42-13c0,0.1,0,0.3,0,0.4
			c-21.9-82.3-98.3-146.4-191-148.4c0,0.1,0,0.1,0,0.2H439.7v0.4h-81c-2.8-8.2-6.1-21.2-5.7-37.1c0.4-13.2,3.1-24,5.7-31.5
			c92.9,0,185.9,0,278.8,0c10.3-0.3,24.9-0.5,42.4,0c16.6,0.5,32.8,1.3,42.5,2.3c65.3,7.2,124.2,30.9,170.7,65.9
			c0.2,0.1,0.4,0.3,0.6,0.4c9.3,7,18.2,14.5,26.4,22.4C956.6,262.4,982.2,305.3,992.7,352.5z"/>
	</g>
</g>
<g class="st22">
	
		<image style="overflow:visible;opacity:8.000000e-02;" width="121" height="41" xlink:href="E2290721.png"  transform="matrix(1 0 0 1 456 388)">
	</image>
	<g>
		<line class="st23" x1="547.7" y1="400" x2="463.4" y2="401"/>
	</g>
</g>
<g class="st24">
	
		<image style="overflow:visible;opacity:8.000000e-02;" width="39" height="115" xlink:href="E2290722.png"  transform="matrix(1 0 0 1 667 240)">
	</image>
	<g>
		<linearGradient id="SVGID_18_" gradientUnits="userSpaceOnUse" x1="674" y1="289.7621" x2="677" y2="289.7621">
			<stop  offset="0" style="stop-color:#7F47DD"/>
			<stop  offset="0.5169" style="stop-color:#FBAE17"/>
			<stop  offset="1" style="stop-color:#FBAE17"/>
		</linearGradient>
		<line class="st25" x1="675.5" y1="250.9" x2="675.5" y2="328.7"/>
	</g>
</g>
<linearGradient id="SVGID_19_" gradientUnits="userSpaceOnUse" x1="674" y1="555.3167" x2="677" y2="555.3167">
	<stop  offset="0" style="stop-color:#7F47DD"/>
	<stop  offset="0.5169" style="stop-color:#FBAE17"/>
	<stop  offset="1" style="stop-color:#FBAE17"/>
</linearGradient>
<line class="st26" x1="675.5" y1="524.6" x2="675.5" y2="586.1"/>
<path class="st19" d="M1207.5,525.5"/>
<g>
	
		<image style="overflow:visible;opacity:8.000000e-02;" width="182" height="110" xlink:href="E2290723.png"  transform="matrix(1 0 0 1 724 354)">
	</image>
	<g>
		
			<linearGradient id="SVGID_20_" gradientUnits="userSpaceOnUse" x1="732" y1="679" x2="876" y2="679" gradientTransform="matrix(1 0 0 -1 0 1080)">
			<stop  offset="0" style="stop-color:#FEF050"/>
			<stop  offset="4.468424e-02" style="stop-color:#F5E15E"/>
			<stop  offset="0.1199" style="stop-color:#E9CE6E"/>
			<stop  offset="0.1974" style="stop-color:#E2C379"/>
			<stop  offset="0.28" style="stop-color:#E0BF7C"/>
			<stop  offset="0.67" style="stop-color:#CA9589"/>
			<stop  offset="0.89" style="stop-color:#B8738F"/>
			<stop  offset="1" style="stop-color:#A33388"/>
		</linearGradient>
		<ellipse class="st27" cx="804" cy="401" rx="72" ry="36"/>
		<ellipse class="st28" cx="804" cy="401" rx="72" ry="36"/>
	</g>
</g>
<image style="overflow:visible;opacity:8.000000e-02;" width="335" height="490" xlink:href="E2290724.png"  transform="matrix(1 0 0 1 854 313.7872)">
</image>
<g class="st29">
	<path class="st30" d="M967.6,401.3c-0.1,3.7-0.6,7.3-1.4,10.6c-2.6,10.3-8.3,18.8-13.8,25.2l1.5-72c6,7.5,12.1,17.9,13.4,30.3
		C967.5,397.3,967.6,399.3,967.6,401.3z"/>
	<path class="st30" d="M1159.8,468.3c-0.1,11.2-1.1,22.5-3.4,33.5c-1.1,5.6-2.5,11-4.2,16.4c-0.8,2.7-1.8,5.3-2.7,8
		c-1,2.6-2,5.2-3.1,7.8c-1,2.6-2.2,5.1-3.4,7.7c-1.3,2.5-2.5,5-3.8,7.5c-2.6,5-5.3,9.8-8.3,14.5c-11.8,18.9-25.8,35.8-40.1,52.1
		c-7.2,8.1-14.4,16.1-21.8,24.1c-7.5,7.9-15.1,15.7-23,23.2c-15.8,15-32.5,29.2-49.9,42.3c-4.3,3.2-8.8,6.4-13.2,9.6
		c-4.4,3.1-9,6.1-13.5,9.2c-1.1,0.8-2.2,1.6-3.4,2.3l-1,0.6l-1.1,0.7c-0.7,0.5-1.5,0.9-2.2,1.4c4.6,1.8,21.5,9.1,28.3,26.8
		c1.8,4.8,5.5,14.3,1.3,19.5c-6.3,7.7-21.6-4-47.3-4.5c-34.8-0.6-50.5,20.3-72.7,9.5c-3.4-1.6-7.9-3.9-10.1-8.8
		c-3.5-7.8,0.2-19.8,24.6-46.8c19-21,56-62,69.1-53.8c4.6,2.9,7.7,12.8-1.4,45.4l2.1-1.3l1.1-0.7l1-0.6c1.1-0.7,2.2-1.5,3.3-2.2
		c4.3-3,8.8-5.9,13.1-9c4.3-3.2,8.7-6.2,12.9-9.4c17-12.8,33.1-26.5,48.5-41.2c7.7-7.3,15.1-14.9,22.4-22.6
		c7.2-7.7,14.5-15.8,21.5-23.8c14-16,27.5-32.4,38.6-50.1c2.8-4.4,5.4-8.9,7.8-13.5c1.2-2.3,2.4-4.6,3.5-6.9c1-2.4,2.1-4.7,3.1-7.1
		c1-2.4,1.9-4.8,2.8-7.2c0.9-2.4,1.8-4.8,2.5-7.3c1.5-4.9,2.8-9.9,3.8-14.9c4.1-20,3.9-41,0.5-61.4c-1.7-10.2-4.3-20.3-7.5-30.2
		c-3.3-9.9-7.3-19.5-12-28.7c-4.7-9.2-10.3-17.9-16.7-25.5c-3.3-3.8-6.8-7.2-10.4-9.8c-1.9-1.2-3.7-2.3-5.4-2.9
		c-1.7-0.6-3.2-0.8-4.2-0.6c-0.7,0.2-1.3,0.3-1.9,0.8c-0.2,0.1-0.3,0.2-0.5,0.4c-0.1,0.2-0.3,0.3-0.5,0.5c-0.3,0.4-0.7,0.8-1.1,1.3
		c-1.6,2-3,4.8-4.3,7.8c-2.6,6.1-4.9,13-7.5,19.9c-0.7,1.7-1.4,3.5-2.1,5.2c-0.7,1.8-1.5,3.4-2.3,5.3c-1.6,3.7-3.5,7.3-5.6,10.7
		c-2,3.5-4.4,6.7-7,9.8c-2.6,3.1-5.4,5.9-8.6,8.4c-6.2,5-13.6,8.7-21.4,10.6s-16,2.2-24,1.3c-4-0.5-8-1.2-11.9-2.2
		c-1-0.3-1.9-0.5-2.9-0.8l-2.9-0.8c-1.9-0.5-3.7-1.2-5.5-1.8c-3.3-1.2-6.5-2.5-9.7-4c0.8-3.4,1.4-6.9,1.4-10.6c0-2,0-4-0.3-5.9
		c4.6,2.3,9.3,4.3,14,6c1.6,0.6,3.2,1.1,4.8,1.6l2.3,0.7c0.8,0.2,1.5,0.4,2.3,0.6c3,0.8,6.2,1.4,9.3,1.8c6.3,0.8,12.7,0.6,18.9-0.9
		c6.2-1.4,12-4.3,16.9-8.3c2.5-2,4.8-4.3,6.8-6.7c2.1-2.4,3.9-5,5.5-7.7c1.6-2.7,3.1-5.5,4.4-8.4c0.6-1.4,1.4-3,2-4.6
		c0.6-1.6,1.3-3.2,1.9-4.8c2.5-6.5,4.7-13.3,7.7-20.5c1.6-3.5,3.3-7.2,6.2-11c0.6-1,1.5-1.9,2.4-2.8c0.4-0.4,1-0.9,1.5-1.3
		c0.5-0.4,1-0.8,1.6-1.2c0.6-0.4,1.2-0.8,1.8-1.1c0.7-0.3,1.3-0.6,2-0.9c0.7-0.3,1.4-0.5,2.1-0.7s1.4-0.4,2.1-0.5
		c4.4-0.7,8.4,0.2,11.7,1.4c3.4,1.3,6.2,3,8.8,4.8c5.1,3.7,9.3,7.9,13.1,12.3c7.5,8.8,13.4,18.5,18.6,28.4
		c5.2,10,9.4,20.3,12.9,30.9c3.5,10.6,6.1,21.4,8,32.4C1158.8,445.9,1159.9,457.1,1159.8,468.3z"/>
</g>
<g class="st22">
	
		<image style="overflow:visible;opacity:8.000000e-02;" width="106" height="40" xlink:href="E2290725.png"  transform="matrix(1 0 0 1 876 389)">
	</image>
	<g>
		<linearGradient id="SVGID_21_" gradientUnits="userSpaceOnUse" x1="883.3954" y1="401" x2="952.3954" y2="401">
			<stop  offset="0" style="stop-color:#7F47DD"/>
			<stop  offset="0.5169" style="stop-color:#FBAE17"/>
			<stop  offset="1" style="stop-color:#FBAE17"/>
		</linearGradient>
		<line class="st31" x1="883.4" y1="401" x2="952.4" y2="401"/>
	</g>
</g>
<linearGradient id="SVGID_22_" gradientUnits="userSpaceOnUse" x1="233" y1="634" x2="233" y2="634" gradientTransform="matrix(1 0 0 -1 0 1080)">
	<stop  offset="0" style="stop-color:#FEF050"/>
	<stop  offset="4.468424e-02" style="stop-color:#F5E15E"/>
	<stop  offset="0.1199" style="stop-color:#E9CE6E"/>
	<stop  offset="0.1974" style="stop-color:#E2C379"/>
	<stop  offset="0.28" style="stop-color:#E0BF7C"/>
	<stop  offset="0.67" style="stop-color:#CA9589"/>
	<stop  offset="0.89" style="stop-color:#B8738F"/>
	<stop  offset="1" style="stop-color:#A33388"/>
</linearGradient>
<path class="st32" d="M233,446"/>
<g>
	
		<image style="overflow:visible;opacity:8.000000e-02;" width="763" height="116" xlink:href="AFEE09BD.png"  transform="matrix(1 0 0 1 269 843)">
	</image>
	<g>
		<text transform="matrix(1 0 0 1 277.2849 914)" class="st33 st34 st35">Ingeniería Informática</text>
	</g>
</g>
<text transform="matrix(0.7289 0 0 1 391.9999 817.8516)" class="st33 st34 st36">DEV &amp;TICS</text>
</svg>
