<svg xmlns="http://www.w3.org/2000/svg" xmlns:xlink="http://www.w3.org/1999/xlink" width="175" height="120" viewBox="0 0 175 120"><defs><path id="wbr5a" d="M1355.62 8162.97h157.23a13.68 13.68 0 0 1 9.7 3.88c2.97 2.92 4.69 6.86 5.76 10.83.64 2.4 1.05 4.85 1.22 7.33-5.16-.1-10.33-.05-15.49-.22-9.7 0-19.4-.24-29.1-.3-7.7-.07-15.4-.21-23.11-.27-3.2-.07-6.4.01-9.6-.17a879.27 879.27 0 0 0-6.06 12.4c-25.72 0-51.44.02-77.16-.02-4.46-11.15-8.9-22.31-13.4-33.46-4.47-11.15 0 0 0 0zm92.74 37.07c2.04-4.13 4.05-8.27 6.09-12.39 1.42.02 2.85.03 4.28.02l.17.1c6.98.05 13.97.11 20.97.15 1.92.17 3.85.1 5.78.13 5.55.06 11.09.06 16.63.13 1.63.18 3.27.04 4.9.12-1.13 3.16-2.15 6.36-3.18 9.55-4.37-.37-8.83.06-12.98 1.53a28.03 28.03 0 0 0-11.54 7.54 25.66 25.66 0 0 0-5.3 8.95c-24.84-.04-49.68 0-74.53-.02-1.57-5.27-3-10.58-4.62-15.83 17.78.02 35.55 0 53.33.02zm-70.05 0c4.35-.02 8.7-.01 13.06-.01 1.17 4.2 2.51 8.34 3.56 12.56-3.95-.03-7.92.06-11.88-.04-1.51-4.2-3.23-8.32-4.74-12.52-1.5-4.2 0 0 0 0zm13.92 34.81c.05-2.92 2.73-5.33 5.58-5.37 4.02-.02 8.03 0 12.05 0 2.67-.04 5.35 2.02 5.68 4.74.15 2.46-.05 4.93.09 7.4.03.46 0 .92-.04 1.39-2.66-.03-5.3.03-7.96-.03.01-2.03.04-4.04 0-6.07-2.49.02-4.98-.01-7.47.02v25.22c2.49.05 4.98 0 7.47.03.02-2.04.06-4.09 0-6.13 2.66-.08 5.32-.02 7.99-.03-.02 2.78 0 5.57-.05 8.36-.04 2.93-2.9 5.3-5.73 5.2-4.34-.04-8.67.1-13-.07-2.48-.54-4.6-2.73-4.61-5.36-.02-9.76-.02-19.53 0-29.3.01-9.76 0 0 0 0zm27.65.03v-.1c0-8.97 0-1.04 0 0 .04-2.91 2.79-5.28 5.6-5.3 4-.02 8.02 0 12.03 0 2.65-.03 5.31 2 5.68 4.69.07 2.94 0 5.89.02 8.84-2.63-.02-5.27 0-7.9-.01 0-2.03-.02-4.05.01-6.08h-7.53v25.25h7.52l-.01-6.14c2.64-.03 5.28 0 7.92-.02v8.12c.13 2.93-2.65 5.39-5.45 5.45h-12.28c-2.87.01-5.67-2.47-5.6-5.44v-29.26zm25.48-5.4h23.4v7.43c-2.58.02-5.17-.01-7.76.02.03 10.88 0 21.77.02 32.66h-7.88v-32.67h-7.78v-7.45c0-2.48 0 0 0 0zm23.7 0l8-.01c2.08 10.72 3.52 21.56 4.98 32.38 1.51-10.82 2.93-21.65 4.99-32.38h8a4583 4583 0 0 1-4.35 22.8c-1.07 5.77-2.23 11.53-3.3 17.3-3.55 0-7.1.05-10.66-.02-.06-.45-.11-.9-.18-1.33-2.53-12.91-4.96-25.84-7.48-38.75-2.53-12.9 0 0 0 0zm-56.24 45.55c1.54.02 3.08 0 4.62.01v1.46h-1.53v6.46l-1.59-.03v-6.44l-1.5.01v-1.47c0-.49 0 0 0 0zm6.34.02h2.12c.5 2.63 1 5.26 1.52 7.89h-1.61l-.3-1.56h-1.35l-.3 1.57-1.61-.02c.53-2.62 1.03-5.25 1.53-7.88zm.69 4.85h.74c-.11-1.1-.24-2.2-.37-3.3-.14 1.1-.27 2.2-.37 3.3-.11 1.1 0 0 0 0zm3.82-4.08c.23-.92 1.32-.8 2.05-.78.84.06 2.02-.29 2.47.68.1.66.04 1.33.04 2-.54 0-1.09 0-1.62-.1l.02-1.13-1.45.02v4.98c.48 0 .96 0 1.45.02v-1.36h-.73v-1.47l2.34-.01c-.03 1.16.05 2.33-.03 3.5-.15.42-.55.82-1.03.76-.88.02-1.77.03-2.66 0-.54-.04-.94-.6-.88-1.13.02-2-.05-3.99.03-5.98.1-1.99 0 0 0 0zm5.97-.78h1.54v6.45l2.2.01v1.44h-3.74v-7.9c0-2.64 0 0 0 0zm4.62 0h1.59v7.9h-1.6c.02-2.64.02-5.27.01-7.9 0-2.62 0 0 0 0zm3.15 0l2.17-.01c.5 1.69.77 3.44 1.36 5.1-.21-1.68-.06-3.38-.11-5.07l1.61-.03v7.92h-2.17c-.43-1.67-.89-3.34-1.22-5.03-.08 1.66-.05 3.33-.04 5-.53.02-1.07.03-1.6.03v-7.91c0-2.64 0 0 0 0zm6.53.02c1.4-.04 2.8 0 4.21-.03v1.47c-.86 0-1.73 0-2.6-.02-.01.6-.02 1.19-.01 1.78h2.17v1.5l-2.17-.02v1.78c.88-.03 1.74-.02 2.61-.02v1.45c-1.4-.03-2.8.01-4.21-.02v-7.87c-.02-2.62 0 0 0 0zm7.86-.01l1.58-.01v3.22h1.43v-3.2l1.63-.02v7.9h-1.6c-.04-1.06 0-2.13-.03-3.2h-1.43v3.2h-1.59c.02-2.63.01-5.26 0-7.9 0-2.63 0 0 0 0zm6.12.03c1.4-.1 2.81 0 4.22-.06l.01 1.48-2.6-.01v1.77l2.15-.01v1.5h-2.16v1.76c.87-.02 1.74-.01 2.61-.01v1.46c-1.42-.05-2.84.03-4.26-.05a42 42 0 0 1 .1-1.12c-.16-2.23-.01-4.47-.07-6.7-.07-2.24 0 0 0 0zm5.4-.04c1.19.02 2.38-.02 3.58.01.59 0 1.1.59 1.02 1.18-.05 1.07.28 2.32-.52 3.19.9.95.4 2.35.53 3.52h-1.6c-.02-.84.09-1.7-.06-2.53-.3-.44-.97-.18-1.42-.26l.01 2.8h-1.56c.02-2.64 0-5.28.01-7.91 0-2.64 0 0 0 0zm1.53 1.47v2.13c.47-.02 1.22.25 1.46-.33.06-.6.02-1.2.03-1.81l-1.49.01c-.5 0 0 0 0 0zm8.7-1.47l.01 1.46h-2.55v1.76c.73 0 1.45 0 2.18.02v1.45c-.73.02-1.46.02-2.18.02v1.75h2.56l-.01 1.45h-4.15v-7.91h4.15z"/></defs><g><g transform="translate(-1355 -8163)"><use fill="#ccc" xlink:href="#wbr5a"/></g></g></svg>