<svg xmlns="http://www.w3.org/2000/svg" xmlns:xlink="http://www.w3.org/1999/xlink" width="145" height="121" viewBox="0 0 145 121"><defs><path id="x8x3a" d="M919.2 8169.97c7.86-2.1 15.72-4.23 23.58-6.35.74-.26 1.47.11 2.18.27 7.86 2.14 15.71 4.24 23.57 6.36 3.1.88 5.99 3.06 7.12 6.16.66 1.74.5 3.64.51 5.47 0 7.17.03 14.35 0 21.53a29.3 29.3 0 0 0-6.95-9.62c.03-4.7.02-9.4.03-14.1.12-1.53-1.39-2.46-2.68-2.79l-22.7-6.12c-.39-.12-.8-.08-1.17.03-7.52 2.05-15.03 4.06-22.55 6.09-1.2.31-2.63 1.1-2.67 2.51-.04 5.55-.01 11.1-.02 16.66a16.1 16.1 0 0 0 3.64 10.08c.25.56.5-.08.56-.32 1.71-5.08 5.31-9.4 9.73-12.38 10.2-6.97 24.76-6.74 34.7.63 5.75 4.16 9.8 10.84 10.06 18.01.01 2.72.19 5.48-.35 8.17-1.06 5.92-4.3 11.53-9.23 15.05-7.7 5.44-15.46 10.76-23.19 16.16-7.7-5.3-15.38-10.65-23.04-16.01-6.42-4.51-10.06-12.45-9.8-20.24 0-3.16-.03-6.32 0-9.48 1.62 3.66 3.93 7 6.92 9.66-.17 5.54 2.37 11.21 6.94 14.44 6.3 4.43 12.63 8.8 18.96 13.2 5.66-3.94 11.33-7.86 16.98-11.82 1.34-.94 2.74-1.83 3.9-3a17.27 17.27 0 0 0 4.8-9.48c.34-1.9.17-3.82.2-5.72.01-3.78-1.52-7.44-3.93-10.3a25 25 0 0 1-10.2 13.22c-9.73 6.5-23.27 6.56-33.07.2-6.69-4.22-11.5-11.7-11.5-19.74.01-5.78 0-11.57.02-17.35.06-4.7 4.29-8.24 8.65-9.08 4.36-.83 0 0 0 0zm18.71 21.23v.25c-.61.07-1.2.24-1.7.6l-.64.28-.63.35c-.83.42-1.6.98-2.45 1.34h1.05l-.02-.4.64.14-.08-.5.69.18-.04-.47 1.01.14-.08-.5 1.02.24-.12-.52c.18.04.54.13.73.16l-.04-.5 1 .23-.12-.53.73.19-.08-.45a4.56 4.56 0 0 1 1.69-.24l-.12-.47.72.25-.08-.5c.65.09 1.33.19 1.9-.2-1.74-.29-3.3.67-4.98.93-1.67.26 0 0 0 0zm4.05 4.97c-1.1 2 .76 4.69 3 4.49 1.71-.02 2.95-1.58 3.14-3.19a9.13 9.13 0 0 1 1.77 3.33 7.52 7.52 0 1 1-14.78 1.55 8.63 8.63 0 0 1 1.18-3.84c-4.6 2.71-8.16 7.38-8.87 12.75 7.77 4.1 17.9 3.48 24.94-1.84 3.68-2.74 6.37-6.9 6.93-11.5a24.05 24.05 0 0 0-17.31-1.75c-5.71 1.64 0 0 0 0zm-28.1 82.87c.86.5 1.2 1.52 1.79 2.27.5-.78.82-1.8 1.7-2.24-.42.9-1.1 1.64-1.5 2.55-.09.63.02 1.32-.3 1.91-.13-.8.06-1.67-.4-2.38-.45-.69-.95-1.35-1.28-2.1-.34-.76 0 0 0 0zm7.79 2.25c.1 1.36-1.35 2.45-2.63 2-1.85-.47-1.86-3.57-.03-4.07l.24-.07c1.26-.26 2.55.8 2.42 2.14zm-2.38-1.82l-.3.09c-.3.07-.17.04 0 0-1.4.54-1.33 3.13.24 3.46 1.08.32 2.17-.63 2.07-1.74.12-1.1-.91-2.1-2-1.8zm3.53 2.93c-.1-1.12-.31-2.37.16-3.44.16 1.12-.07 2.28.2 3.38.38 1.04 2.06.92 2.33-.15.14-1.06 0-2.14.13-3.2.56.9.22 2.06.23 3.07-.13 1.56-2.56 1.8-3.05.34-.5-1.45 0 0 0 0zm4.5-3.26c.82.12 1.97-.2 2.46.7.34.8-.37 1.42-1.04 1.7.56.6 1.1 1.2 1.52 1.9-1.1-.4-1.35-1.99-2.6-2.04-.01.7-.02 1.42-.07 2.13-.61-1.37-.18-2.94-.27-4.39-.08-1.45 0 0 0 0zm.34.29l-.02 1.8c.7-.04 1.82.06 1.87-.9.01-.98-1.19-.84-1.85-.9-.66-.07 0 0 0 0zm4.53.65v-.02c.25-1.36.03-.15 0 0 .22-1.15 1.8-1.12 2.46-.37-.68-.09-1.8-.61-2.1.33-.19 1.28 2.34.81 2.02 2.23-.04 1.36-2.17 1.51-2.66.34.71.35 1.93.91 2.33-.16.33-1.42-2.32-.88-2.05-2.35zm3.5-1.1c.58 1.25.1 2.71.26 4.05l1.78-.02.02.34c-.71-.02-1.42-.02-2.13-.01.01-1.46-.08-2.92.07-4.36.16-1.45 0 0 0 0zm3.8.28l.15-.05c1.15-.43.36-.14 0 0 1.32-.43 2.8.67 2.64 2.1.1 1.4-1.42 2.46-2.72 1.96-1.71-.57-1.76-3.38-.07-4zm-.13.42c-1.35.85-.83 3.5.9 3.38 1.45.11 2.1-1.77 1.4-2.85-.42-.8-1.56-.98-2.3-.53-.74.45 0 0 0 0zm3.77 1.6a1.7 1.7 0 0 1 .07-.84c0-.03 0-.03 0 0 .49-1.34 2.64-1.86 3.56-.6-.76-.22-1.58-.6-2.36-.25-1.26.6-1.25 2.7-.03 3.33.63.27 1.34.07 2 .03l.05-1.27-.8.03.04-.3 1.08.03.01 1.56c-1.41.86-3.8.22-3.62-1.72zm6.03-2.26c.86 1.38 1.4 2.94 1.93 4.47-.44-.36-.65-.9-.85-1.4-.68-.04-1.35-.04-2.03-.01-.24.48-.37 1.08-.88 1.36a54.72 54.72 0 0 1 1.83-4.42c.66-1.46 0 0 0 0zm-.83 2.76h1.77c-.26-.73-.57-1.44-.94-2.11-.26.71-.54 1.41-.83 2.11zm3.51-2.73c1.18 1.03 1.9 2.46 2.97 3.59.03-1.2-.04-2.42.06-3.62.4.45.23 1.08.27 1.63-.02.93.06 1.88-.14 2.8-.98-1.19-1.83-2.47-2.85-3.61-.03 1.22.04 2.44-.06 3.66-.57-1.4-.09-2.98-.25-4.45-.16-1.48 0 0 0 0zm5.9 1.93c.09-.64-.26-1.47.3-1.96.06.7.06 1.39.06 2.09l2.54-.01c0-.72-.1-1.47.27-2.12.12 1.5.08 3 .02 4.5-.47-.6-.24-1.4-.3-2.11h-2.52c-.01.7-.02 1.42-.08 2.13-.54-.72-.2-1.69-.3-2.52-.09-.83 0 0 0 0zm4.62-1.8c.9 0 1.78-.02 2.68.05-.72.42-1.59.22-2.37.28l.05 1.57c.65 0 1.3 0 1.95.06-.59.4-1.32.22-1.98.26l.03 1.63 2.04-.02.02.34c-.81-.02-1.61-.02-2.42-.02v-4.14c.01-1.38 0 0 0 0zm6.16.58c.23.78-.17 1.47-.94 1.7.45.68 1.07 1.26 1.32 2.05-.9-.63-1.26-1.98-2.46-2.14-.04.71.1 1.49-.29 2.14a57.76 57.76 0 0 1-.05-4.34c.8.08 1.87-.2 2.42.6zm-2.1-.33v1.8c.7 0 1.77.02 1.88-.9-.03-.98-1.2-.84-1.88-.9-.67-.07 0 0 0 0zm6.1-.19c-.7.44-1.55.19-2.31.23l-.01 1.6c.67.02 1.38-.1 2 .24-.66.08-1.33.07-2 .09v1.63l2.1-.02v.34c-.8-.02-1.61-.02-2.42-.01-.02-1.38-.01-2.77-.01-4.15.88-.01 1.76-.03 2.64.05zm-91.75-16.32c-.48.6-.62 1.72-1.46 1.89-1.2-.49-2.41-1.35-3.77-.92-1.2.18-1.76 1.98-.68 2.66 1.7 1.08 4.07 1.03 5.4 2.72 1.53 2.07.54 5.39-1.75 6.47-2.51 1.25-5.67.51-7.71-1.3.54-.6.82-2.05 1.87-1.8 1.16.67 2.39 1.53 3.8 1.21 1.36-.06 2.19-1.9 1.22-2.9-1.13-.94-2.7-.97-3.98-1.6a3.63 3.63 0 0 1-2.24-2.83 4.21 4.21 0 0 1 2.31-4.6l.07-.03a6.66 6.66 0 0 1 6.92 1.03zm-6.92-1.03c.29-.13 1.39-.64 0 0zm9.34-.37c3.13.02 6.27-.01 9.42.02-.03.78-.03 1.57-.02 2.36h-6.32v3.77h4.9l-.01 2.33c-1.63-.01-3.25.01-4.87-.03-.03 1.28-.02 2.56-.02 3.83h6.3l.01 2.4c-3.13-.02-6.26-.02-9.4 0v-14.68c0-4.9 0 0 0 0zm22.86 1.77c-.5.6-.85 1.4-1.56 1.77-.9-.23-1.62-.95-2.56-1.08-1.81-.39-3.87.48-4.6 2.24-.87 2.08-.74 4.81.9 6.48 1.56 1.51 4.25 1.46 5.88.09.92-.7 1.5.83 2.15 1.28-2.88 3.39-9.1 3.02-11.41-.83-1.68-2.8-1.61-6.7.44-9.29l.02-.03c2.54-3.19 7.84-3.44 10.74-.63zm1.67-1.77h3.08v8.78c0 .9.2 1.85.84 2.52 1.05 1.14 2.96 1.24 4.2.36.92-.66 1.27-1.84 1.26-2.92v-8.74h3.02c.13 2.49-.04 4.98.05 7.48.04 1.54-.01 3.17-.83 4.52-2.11 3.7-8.22 3.82-10.59.34a6.38 6.38 0 0 1-1.02-3.59v-8.75c-.02-2.92 0 0 0 0zm15.34 0c2.82.19 5.85-.51 8.48.8 2.23 1.14 2.53 4.4 1 6.22a5.11 5.11 0 0 1-2.08 1.43c.4.35.8.71 1.08 1.16l3.28 5.07c-1.19-.14-2.51.26-3.61-.26-1.2-1.57-2.07-3.37-3.22-4.98-.44-.57-1.28-.25-1.9-.35v5.58h-3.03v-14.67c0-4.9 0 0 0 0zm3.04 2.33v4.62c1.07-.03 2.22.14 3.21-.36 1.47-.68 1.63-3.14.16-3.91-1.04-.53-2.25-.32-3.37-.35-1.12-.04 0 0 0 0zm10.15-2.33c3.13.02 6.26 0 9.4 0v2.39h-6.35v3.75c1.64 0 3.28.02 4.93-.02v2.36h-4.93v3.8h6.35v2.38c-3.14.02-6.27 0-9.4.01v-14.67c0-4.9 0 0 0 0zm9.9 0c1.17.2 3.13-.62 3.6.93 1.23 3.45 2.74 6.8 3.75 10.34.92-3.32 2.34-6.46 3.47-9.7.25-.54.34-1.32.99-1.51.94-.12 1.9-.04 2.85-.05-1.97 4.88-3.98 9.74-5.9 14.64-.96.02-1.9.02-2.85 0-1.92-4.9-3.94-9.76-5.9-14.64-1.97-4.89 0 0 0 0zm16-.01c1.03.02 2.05.02 3.07 0v14.69a81.56 81.56 0 0 0-3.07 0v-14.69c.01-4.9 0 0 0 0zm14.9 1.31c-.36.68-.56 1.57-1.26 1.98-1.24-.28-2.37-1.35-3.75-.95-1.23.06-2.02 1.82-.98 2.62 1.64 1.13 3.92 1.06 5.34 2.58 1.74 2 .82 5.46-1.46 6.64-2.53 1.32-5.76.6-7.84-1.25.53-.62.78-1.83 1.74-1.85 1.27.68 2.58 1.64 4.1 1.23 1.43-.14 2.04-2.3.8-3.08-1.5-.93-3.47-.89-4.84-2.1-1.8-1.66-1.5-4.95.53-6.31l.19-.13c2.26-1.44 5.36-.95 7.44.62zm2.43-1.3h3.1l-.01 14.67h-3.1l.01-14.67c0-4.89 0 0 0 0zm10.58.13c2.56-.7 5.53-.2 7.52 1.63 3.05 2.79 3.1 8.16.14 11.03-2.97 2.87-8.33 2.74-11.1-.35-1.97-2.2-2.34-5.54-1.25-8.22.8-2 2.62-3.53 4.69-4.09 2.07-.56 0 0 0 0zm-1.63 9.8c1.26 3.01 6.17 3.16 7.67.27.92-1.82.9-4.15-.11-5.93-1.05-1.77-3.46-2.26-5.31-1.6-2.84 1-3.35 4.79-2.25 7.25zm15.85-9.86c.48.34.8.86 1.19 1.31 2.19 2.81 4.44 5.58 6.6 8.4-.07-3.26-.01-6.52-.03-9.78h2.69v14.67c-.93-.08-2.17.32-2.75-.65-2.41-3.02-4.79-6.06-7.2-9.08.07 3.25.02 6.49.03 9.73h-2.7v-14.67c.72.01 1.45-.05 2.17.07z"/></defs><g><g transform="translate(-870 -8163)"><use fill="#ccc" xlink:href="#x8x3a"/></g></g></svg>