<svg xmlns="http://www.w3.org/2000/svg" xmlns:xlink="http://www.w3.org/1999/xlink" width="167" height="121" viewBox="0 0 167 121"><defs><path id="hgeoa" d="M661.48 8169.8c9.7-3.06 19.72-5.22 29.87-5.88 15.38-1.1 30.86 1.17 45.52 5.88-.11 3.05-.22 6.1-.4 9.14-2.15-.42-4.3-.73-6.47-.95l.19-3.38a112.69 112.69 0 0 0-62-.02 127.4 127.4 0 0 0 2.72 22.42c1.34 5.95 3.31 11.81 6.43 17.06a51.27 51.27 0 0 0 21.82 20.16c8.62-4.32 16.3-10.8 21.27-19.2a10.1 10.1 0 0 0 6.53 1.76 55.05 55.05 0 0 1-8.96 11.94c-5.4 5.43-11.98 9.48-18.83 12.78-6.1-2.97-12-6.49-17.05-11.09-7.64-6.87-12.86-16.13-15.88-25.92-3.5-11.2-4.35-23.02-4.76-34.7-.4-11.67 0 0 0 0zm-18.11 79.03c3.56-.91 7.63-.09 10.3 2.52 3.5 3.3 3.82 9.28.8 12.98-3.93 4.96-12.37 5-16.37.11a9.9 9.9 0 0 1-.09-12.22 10.02 10.02 0 0 1 5.36-3.4c2.06-.54 0 0 0 0zm1.07 3.64l-.36.11c-1.2.37-.49.15 0 0-3.48 1.21-4.77 5.96-2.84 9.03 1.7 2.96 6.06 3.6 8.66 1.51 2.57-2 2.94-6.11 1-8.67a5.96 5.96 0 0 0-6.46-1.98zm-27.23-3.66h4.6c1.67 2.8 3.34 5.61 5.03 8.41l5-8.4h4.26c-2.2 3.69-4.39 7.4-6.62 11.08-.27.5-.64.99-.64 1.59-.07 2.08.01 4.17-.02 6.26h-4.33c-.05-2.23.1-4.46-.06-6.68-.36-1.02-1.04-1.89-1.57-2.83l-5.65-9.43c-1.88-3.14 0 0 0 0zm42.42 0h4.34c.02 3.61-.02 7.23.01 10.84.03 1.62.54 3.54 2.14 4.27 1.64.7 3.85.6 5.13-.77 1.08-1.25 1.1-3.02 1.11-4.59 0-3.25-.02-6.5.01-9.76l4.29.01v10.49c0 2.1-.39 4.32-1.75 5.97a7.78 7.78 0 0 1-5.56 2.76c-2.5.22-5.26-.18-7.2-1.94-1.8-1.6-2.5-4.08-2.5-6.43-.03-3.61 0-7.23-.02-10.85 0-3.62 0 0 0 0zm21.35 0h8.15c2.1 0 4.3.5 5.96 1.88 2.54 2.1 2.88 6.27.96 8.9-.67.94-1.66 1.53-2.61 2.14l4.15 6.02h-4.67c-1.22-1.76-2.4-3.56-3.65-5.29-1.32.03-2.64.02-3.96.02v5.26h-4.33v-18.93c0-6.31 0 0 0 0zm4.33 3.56l-.01 6.57c1.9-.05 3.9.29 5.74-.34 2.37-.88 2.45-4.8.14-5.8-1.86-.75-3.92-.33-5.87-.43-1.95-.1 0 0 0 0zm15.4 15.37v-18.93h3.56l9.34 11.48v-11.48h4.3v18.94c-1.2 0-2.4 0-3.6-.03-3.09-3.84-6.23-7.63-9.34-11.46v11.49h-4.26c-1.42-.01 0 0 0 0zm19.19 0c2.8-6.31 5.57-12.64 8.4-18.94l4.28.01 8.39 18.94h-4.57c-.54-1.37-1.1-2.72-1.65-4.08h-8.71l-1.66 4.08h-4.48c-1.5 0 0 0 0 0zm7.54-7.37h5.95l-2.98-7.26-2.97 7.26c-1 2.42 0 0 0 0zm15.52 7.38v-18.94h3.57l7.06 11.78 6.91-11.78h3.57l.07 18.94h-4.08l-.04-11.37-5.54 9.36h-1.96l-5.47-9.1v11.1h-4.09c-1.36 0 0 0 0 0zm25.64-18.94h14.2v3.52h-9.9v4.11h8.72v3.41h-8.71v4.37h10.22v3.53H768.6v-18.94c0-6.31 0 0 0 0zm-76.29 26.6c.13-.06.26-.12.39-.16 1.15-.48.49-.2 0 0a5.18 5.18 0 0 1 4.7.82l-.5.64c-1.35-.99-3.29-1.32-4.71-.28-1.92 1.26-1.9 4.46.04 5.7 1.25.9 2.87.63 4.22.12l.03-2.98h.83c-.01 1.1.09 2.2-.1 3.3-1.97 1.54-5.28 1.24-6.65-.97-1.37-2.05-.56-5.23 1.75-6.2zm24.1-.36l.84.04c-.02 2.86.06 5.72-.04 8.57-.56-.3-1.1-.65-1.46-1.18-1.5-1.95-3.03-3.89-4.54-5.83v6.8h-.88c.02-2.86-.05-5.71.04-8.57.58.25 1.1.66 1.47 1.18 1.5 1.94 3.02 3.87 4.54 5.8.02-2.28 0-4.55.02-6.81.03-2.27 0 0 0 0zm-80-.11c.59.08 1.16.3 1.41.9.82 1.3 1.57 2.63 2.38 3.94.98-1.5 1.74-3.14 2.84-4.54l.89-.33c-.95 1.95-2.28 3.67-3.24 5.6-.17.97-.08 1.97-.1 2.95h-.85c-.05-1.03.16-2.12-.16-3.1-.97-1.86-2.22-3.56-3.17-5.42-.95-1.87 0 0 0 0zm16.36 3.25c.71 2.45-1.18 5.2-3.72 5.31-2.44.39-4.96-1.63-4.87-4.18a4.16 4.16 0 0 1 2.82-4.08c2.29-.84 5.24.43 5.77 2.95zm-5.77-2.08c-.16.07-.32.15-.47.25-.89.46-.43.22 0 0-2.04 1.31-1.97 4.9.32 5.98 2.16 1.26 5.29-.41 5.16-3.01.21-2.58-2.8-4.37-5-3.22zm7.79-1.04h.87c.06 2-.17 4.02.15 6 .49 2.27 4.36 2.24 4.79-.06.3-1.96.07-3.96.14-5.94h.85c-.08 2.1.21 4.25-.2 6.32-.57 2.13-3.34 2.65-5.08 1.7-.96-.53-1.45-1.63-1.5-2.7-.1-1.77 0-3.55-.02-5.32-.02-1.78 0 0 0 0zm9.43 8.38c.01-2.8 0-5.59.02-8.38 1.96.15 4.46-.57 5.93 1.14 1.17 1.5.4 3.74-1.28 4.48.68.95 1.37 1.9 1.98 2.89-1.53-.09-2-1.76-2.83-2.78h-2.94v2.66h-.88c-.22-.01 0 0 0 0zm.89-7.62v4.22c1.18-.04 2.42.14 3.57-.25 1.5-.55 1.57-3.02.12-3.67-1.17-.46-2.47-.25-3.7-.3-1.22-.04 0 0 0 0zm9.46 0l.02-.76h6.67l.06.75c-.98.02-1.97.02-2.95.02v7.61h-.88v-7.61h-2.92c-.98-.01 0 0 0 0zm9.76.1l.14-.32c.67-1.52.25-.55 0 0 .22-.37.6-.6 1.04-.7 1.29 2.89 2.67 5.75 3.88 8.68-1.3-.02-1.44-1.47-1.93-2.37h-4.6c-.5.88-.63 2.37-1.93 2.37 1.06-2.59 2.27-5.1 3.4-7.66zm.82.07l-1.98 4.5h3.97l-1.99-4.5c-.67-1.5 0 0 0 0zm14.63-.93h.88v7.62h4.66l-.03.77h-5.5v-8.39c0-2.8 0 0 0 0zm6.97 0h.88v8.39h-.88v-8.38c0-2.8 0 0 0 0zm13.2 0h5.68v.77h-4.8v2.98h4.27l.02.75h-4.3v3.12l5.03.01-.06.76h-5.84v-8.39c0-2.8 0 0 0 0zm11.02 0h.87v3.74h5.2v-3.73l.84-.02c-.02 2.74.08 5.49-.03 8.23l-.8.3c-.03-1.34-.02-2.67-.02-4h-5.19v3.87h-.87v-8.39c0-2.8 0 0 0 0zm9.62 0h5.68v.77h-4.8v2.98h4.29v.76h-4.3v3.1c1.68 0 3.36 0 5.03.03l-.07.75h-5.83v-8.39c0-2.8 0 0 0 0zm7.9 8.34c.03-2.78.01-5.56.02-8.34 1.94.15 4.37-.55 5.88 1.06 1.26 1.49.5 3.83-1.24 4.54a40 40 0 0 1 2 2.91c-1.54-.09-2-1.78-2.85-2.79h-2.92v2.69l-.88-.07c-.22-.02 0 0 0 0zm.9-7.58v4.22c1.18-.04 2.4.13 3.55-.24 1.55-.55 1.6-3.11.07-3.72-1.16-.4-2.42-.22-3.62-.26-1.2-.03 0 0 0 0zm13.36-.76v.77h-4.8v2.98h4.27l.02.75h-4.3v3.12c1.68 0 3.35 0 5.03.02l-.06.75h-5.84v-8.39h5.68zm-85.11-87.64c-.16-5.66 4-11.27 9.63-12.18 12.66 1.2 25.31 2.63 37.98 3.93 3.87.47 7.8.61 11.6 1.61 2.44.64 4.88 1.9 6.25 4.13 1.83 2.92 1.99 6.51 2.05 9.87-1.72.47-3.46.9-5.2 1.32-.16-3.42-.9-7.01-3.15-9.69a8.86 8.86 0 0 0-7.94-3.17c-3.6.4-6.68 2.97-8.2 6.22 1.73-1.98 3.71-3.94 6.31-4.67a7.74 7.74 0 0 1 8.2 2.53c2.2 2.69 2.95 6.3 3.05 9.7.1 4.84-1.56 9.65-4.42 13.52-1.94 2.6-4.9 4.81-8.28 4.61-3.02-.07-5.63-2.17-6.98-4.8-2.3-4.34-2.26-9.59-1-14.25a4182.86 4182.86 0 0 1-39.9-8.68c-13.28-2.96 0 0 0 0zM723 8201.1c.05 1.86.77 4.01 2.58 4.82 1.67.72 3.49-.32 4.5-1.66 2.01-2.62 2.61-6.67.64-9.46a3.18 3.18 0 0 0-3.97-1l-.13.06c-2.52 1.37-3.67 4.47-3.62 7.24zm-7.51-3.7c-.82 5.22-.55 11.03 2.75 15.38-4.34-1.27-8.69-2.52-13.03-3.77-.41 5.28-.8 10.56-1.22 15.84-.14 2.92-3.18 5.42-6.05 4.6-1.67-.47-3.5-.54-5.04-1.36a51.08 51.08 0 0 1-11.21-11.43c4.19.92 8.36 1.9 12.55 2.83l.57-13.5c-2.8-.8-5.6-1.62-8.4-2.4-.74-.2-1.45-.5-1.93-1.12-3.2-3.53-4.9-8.3-5.05-13.06l36.06 8z"/></defs><g><g transform="translate(-617 -8163)"><use fill="#ccc" xlink:href="#hgeoa"/></g></g></svg>