<svg xmlns="http://www.w3.org/2000/svg" xmlns:xlink="http://www.w3.org/1999/xlink" width="142" height="121" viewBox="0 0 142 121"><defs><path id="ugcja" d="M463.9 8167.69a53.6 53.6 0 0 1 29.7 33.57 54.79 54.79 0 0 1-.24 32.42c-.77 2.38-1.63 4.79-3.09 6.85a11.43 11.43 0 0 1-5.32 4.26c-2.2.81-4.62.98-6.9.54-2.7-.53-5.2-2-6.99-4.1a12.67 12.67 0 0 1 1.1-17.65 24.05 24.05 0 0 0 4.51-30.25 23.77 23.77 0 0 0-10.69-9.45 23.3 23.3 0 0 0-22.53 2.04 23.88 23.88 0 0 0-8.5 10.28 24.12 24.12 0 0 0-1.28 15.25 23.9 23.9 0 0 0 7.15 12.03 24.2 24.2 0 0 1 4.8 30.05 23.9 23.9 0 0 1-12.76 10.45c-5.63 1.98-12 1.69-17.4-.86-1.87-.81-3.48-2.08-5.1-3.3a54 54 0 0 1-17.93-25.16 54.79 54.79 0 0 1-2.25-26 53.93 53.93 0 0 1 13.56-28.2 52.6 52.6 0 0 1 34.24-17c8.8-.79 17.82.65 25.93 4.23zm.04 22.37a15.9 15.9 0 0 1 9.5 9.74 16.19 16.19 0 0 1-.42 11.58 15.85 15.85 0 0 1-10.28 9.03c-3.3.92-6.88.71-10.05-.58-.1-.04-.2-.1-.28-.16a8.43 8.43 0 0 0 5.37-4.2 8.58 8.58 0 0 0-1.52-10.15 5.53 5.53 0 0 0 4.13-8.72 5.42 5.42 0 0 0-8.22-.78 5.57 5.57 0 0 0-.71 7.16 8.33 8.33 0 0 0-8.14 3.84c-.1.16-.2.34-.35.45-.43-3.18.08-6.5 1.52-9.37a15.86 15.86 0 0 1 8.54-7.78l.13-.05a15.65 15.65 0 0 1 10.78 0zm2.98 63.5a9.16 9.16 0 0 1 3.63 6.44c-1.56.01-3.13-.02-4.7.02a5.22 5.22 0 0 0-1.77-2.94 5.07 5.07 0 0 0-6.91 1.11 5.95 5.95 0 0 0 .4 7.3c1.77 1.85 5.06 2.06 6.91.25a5.1 5.1 0 0 0 1.34-2.54c1.57-.07 3.15.04 4.73-.03a9.05 9.05 0 0 1-3.87 6.62c-3.95 2.6-9.77 1.92-12.89-1.7a10.19 10.19 0 0 1 .02-13.01l.11-.14c.54-.6 2.59-2.92 0 0 3.22-3.56 9.1-4.14 13-1.39zm21.07-.28a9.06 9.06 0 0 1 4.04 6.72h-4.73a4.77 4.77 0 0 0-2.26-3.25 5.13 5.13 0 0 0-6.22 1.21 5.98 5.98 0 0 0-.08 7.15 5.09 5.09 0 0 0 6.77 1.02c.96-.7 1.53-1.81 1.8-2.95 1.56.03 3.14 0 4.7.01a9 9 0 0 1-3.9 6.64c-3.95 2.54-9.7 1.87-12.81-1.7-3.2-3.6-3.17-9.64.09-13.18l.15-.16c3.13-3.32 8.62-3.9 12.45-1.51zm4.48-1.06h16.4c-.02 1.39 0 2.78-.01 4.17h-5.88c-.01 4.86.03 9.73-.02 14.59-1.52-.02-3.05-.03-4.57 0-.05-4.86 0-9.73-.02-14.6h-5.89c-.03-1.38 0-2.77-.01-4.16-.01-1.39 0 0 0 0zm17.26 0h5.1l5.28 12.68c1.75-4.23 3.5-8.46 5.27-12.69h5.08c-2.69 6.28-5.35 12.58-8.04 18.86h-4.64c-2.7-6.28-5.35-12.58-8.05-18.86-2.7-6.28 0 0 0 0zm-38.8 24.65c.49.45.77 1.08.95 1.71h-.77a2.47 2.47 0 0 0-2.3-1.86 2.77 2.77 0 0 0-2.69 1.43 3.07 3.07 0 0 0 .47 3.55 2.81 2.81 0 0 0 3.8.16c.35-.32.58-.76.71-1.22.26-.01.52-.02.78-.01a3.38 3.38 0 0 1-1.5 2.13 3.6 3.6 0 0 1-4.38-.62 3.74 3.74 0 0 1 0-5.05l.15-.15a3.57 3.57 0 0 1 4.77-.07zm9.37 2.28a3.62 3.62 0 0 1-3.17 4.06 3.6 3.6 0 0 1-3.92-2.97 3.64 3.64 0 0 1 2.91-4.21c1.93-.38 4 1.11 4.18 3.12zm-4.56-2.3c-.7.26-.23.09 0 0a2.99 2.99 0 0 0-.47 5.27c1.05.67 2.52.52 3.4-.35a3.03 3.03 0 0 0 .24-4.07 2.8 2.8 0 0 0-3.17-.84zm6.2-.73c.2 0 .39.02.59.03.9 1.56 1.8 3.12 2.74 4.66.9-1.57 1.84-3.1 2.73-4.68.2 0 .4.01.59.03-.05 2.3 0 4.62-.02 6.93h-.73c0-1.77 0-3.53.02-5.3-.8 1.28-1.57 2.6-2.33 3.9l-.54.02a227.5 227.5 0 0 0-2.34-3.96l.01 5.34h-.73c0-2.32-.01-4.65.01-6.97.02-2.33 0 0 0 0zm8.56.01c1.35.11 2.84-.3 4.06.45 1.27.77 1.29 2.87.06 3.7-.98.72-2.26.48-3.4.52v2.29h-.7c-.05-2.31-.03-4.64-.02-6.96.01-2.32 0 0 0 0zm.73.68v3.31c.96-.07 2.04.22 2.9-.36.86-.56.9-2.01.03-2.59-.87-.58-1.96-.3-2.93-.36-.97-.07 0 0 0 0zm4.13 6.28c1.05-2.34 2.05-4.71 3.16-7.03l.64.02c1.05 2.33 2.07 4.68 3.13 7l-.79.01-.89-2.03c-1.18 0-2.37.02-3.56-.01a30.8 30.8 0 0 0-.9 2.02c-.26.02-.53.02-.8.02-.26 0 0 0 0 0zm3.44-6.09c-.47 1.14-1 2.25-1.47 3.4 1 .01 1.99-.05 2.99 0-.51-1.14-.97-2.3-1.52-3.4zm4.74-.87h.6c1.51 1.88 2.97 3.8 4.5 5.67v-5.67h.7c.04 2.31 0 4.62.03 6.93l-.6.04c-1.53-1.86-3-3.77-4.5-5.64l-.01 5.64-.72-.02v-6.95c0-2.31 0 0 0 0zm7.73 0l2.4 3.77c.81-1.24 1.6-2.5 2.4-3.76l.82-.01c-.93 1.5-1.9 2.96-2.81 4.45-.08.84.02 1.68-.05 2.52a17.8 17.8 0 0 0-.72-.01c-.04-.84.07-1.7-.05-2.52-.91-1.5-1.88-2.95-2.8-4.44h.8z"/></defs><g><g transform="translate(-389 -8163)"><use fill="#ccc" xlink:href="#ugcja"/></g></g></svg>