<svg xmlns="http://www.w3.org/2000/svg" xmlns:xlink="http://www.w3.org/1999/xlink" width="46" height="60" viewBox="0 0 46 60"><defs><path id="xff2a" d="M471 567v19.08c0 10.44-4.7 20.35-12.55 26.53a30.5 30.5 0 0 1-10.17 5.35 1.01 1.01 0 0 1-.56 0c-3.59-1.06-7-2.87-10.17-5.35-7.86-6.18-12.55-16.1-12.55-26.53V567a1 1 0 0 1 1-1c14.63 0 21.17-7.57 21.23-7.64.2-.23.5-.35.77-.36a1 1 0 0 1 .77.36c.1.11 6.64 7.64 21.23 7.64a1 1 0 0 1 1 1zm-2 .99c-12.24-.28-18.87-5.5-21-7.55-2.14 2.05-8.76 7.28-21 7.55v18.1c0 9.82 4.4 19.15 11.78 24.94a28.6 28.6 0 0 0 9.22 4.92 28.6 28.6 0 0 0 9.22-4.92c7.38-5.8 11.78-15.12 11.78-24.95zm-22.11 6h2.22c1.04 0 1.89.86 1.89 1.9v2.52c0 .17.2.32.38.39.33.13.7.11.87-.05l1.79-1.79a1.9 1.9 0 0 1 2.67 0l2.28 2.28a1.87 1.87 0 0 1 0 2.67l-1.79 1.79c-.13.13-.16.22-.17.25 0-.04.13.05.4.05H460c1.16 0 2 1.43 2 2.39v3.22c0 .96-.84 2.39-2 2.39h-2.57c-.26 0-.38.07-.4.1 0-.01.05.08.17.2l1.79 1.79a1.88 1.88 0 0 1 0 2.67l-2.28 2.28a1.9 1.9 0 0 1-2.67 0l-1.79-1.79c-.08-.08-.33-.07-.57.03-.4.17-.68.5-.68.72v2.12c0 .44.01 1.03-.43 1.48-.19.18-.5.4-1 .4h-3.23c-.5 0-.82-.22-1-.4-.4-.45-.37-1-.35-1.37l.01-.23v-2c0-.2-.28-.53-.7-.7-.3-.13-.57-.13-.65-.05l-1.79 1.79a1.9 1.9 0 0 1-2.67 0l-2.27-2.28a1.9 1.9 0 0 1 0-2.67l1.78-1.79c.19-.19.23-.63.08-.98-.02-.06-.14-.32-.3-.32H436c-1.05 0-2-.95-2-2v-2.61c0-.96.84-2.4 2-2.4h2.48c.24 0 .37-.06.4-.08-.02 0-.07-.1-.18-.21l-1.78-1.79a1.87 1.87 0 0 1 0-2.67l2.27-2.28a1.9 1.9 0 0 1 2.67 0l1.8 1.79c.16.17.59.18.94.04.2-.08.4-.23.4-.38v-2.52c0-1.04.85-1.9 1.89-1.9zm.11 4.42c0 .96-.63 1.8-1.63 2.23-1.13.46-2.39.27-3.13-.48l-1.71-1.7-2.12 2.12 1.7 1.7c.71.71.94 1.6.61 2.4-.33.81-1.2 1.32-2.24 1.32h-2.29c-.08.11-.18.3-.2.4l.01 2.6c0-.04.04 0 .07 0h2.4c.94 0 1.76.6 2.16 1.55.46 1.12.26 2.4-.52 3.17l-1.7 1.7 2.12 2.12 1.7-1.7c.69-.68 1.77-.83 2.83-.4 1.16.49 1.94 1.51 1.94 2.56v2h2v-2c0-1.06.77-2.1 1.91-2.57 1.03-.42 2.08-.27 2.76.4l1.7 1.71 2.13-2.12-1.71-1.7c-.71-.72-.94-1.61-.61-2.4.34-.82 1.2-1.32 2.25-1.32h2.38c.08-.11.18-.3.19-.4v-3.21a1.1 1.1 0 0 0-.2-.4h-2.37c-1.05 0-1.91-.5-2.25-1.31-.33-.8-.1-1.69.61-2.4l1.7-1.7-2.11-2.13-1.71 1.71c-.74.74-1.97.93-3.05.49-1-.42-1.62-1.27-1.62-2.24V576h-2zm.95 4.59a5 5 0 1 1-.01 10.01 5 5 0 0 1 .01-10.01zm-3 5a3 3 0 1 0 6.01 0 3 3 0 0 0-6 0z"/></defs><g><g transform="translate(-425 -558)"><use fill="#222" xlink:href="#xff2a"/></g></g></svg>