<svg xmlns="http://www.w3.org/2000/svg" xmlns:xlink="http://www.w3.org/1999/xlink" width="291" height="208" viewBox="0 0 291 208"><defs><path id="qql4a" d="M226.97 7592.59c19.25 12.38 28.89 29.07 28.89 50.04 0 21-6.2 37.5-18.57 49.53-12.38 12.04-27.86 18.05-46.43 18.05s-34.22-5.83-46.94-17.54c-12.73-11.68-19.08-26.98-19.08-45.91 0-18.91 6.19-37.3 18.57-55.2l60.87-87.7h62.93zm147.84 0c19.25 12.38 28.89 29.07 28.89 50.04 0 21-6.2 37.5-18.57 49.53-12.38 12.04-27.86 18.05-46.43 18.05-18.56 0-34.22-5.83-46.93-17.54-12.74-11.68-19.09-26.98-19.09-45.91 0-18.91 6.19-37.3 18.57-55.2l60.87-87.7h62.93z"/></defs><g><g opacity=".2" transform="translate(-124 -7503)"><use fill="#c8ccd6" xlink:href="#qql4a"/></g></g></svg>