<svg xmlns="http://www.w3.org/2000/svg" xmlns:xlink="http://www.w3.org/1999/xlink" width="46" height="60" viewBox="0 0 46 60"><defs><path id="94vta" d="M625 567.08v19.06c0 10.41-4.69 20.31-12.55 26.48a30.55 30.55 0 0 1-10.17 5.34 1 1 0 0 1-.57 0c-3.58-1.06-7-2.86-10.16-5.34-7.86-6.17-12.55-16.07-12.55-26.48v-19.06a1 1 0 0 1 1-1c14.7 0 21.17-7.55 21.23-7.63a1.03 1.03 0 0 1 1.54 0c.09.11 6.63 7.63 21.23 7.63a1 1 0 0 1 1 1zm-2 .99c-12.24-.27-18.87-5.49-21-7.54-2.14 2.05-8.76 7.27-21 7.54v18.07c0 9.8 4.4 19.12 11.78 24.9a28.64 28.64 0 0 0 9.22 4.92c3.24-1 6.33-2.65 9.22-4.91 7.38-5.8 11.78-15.1 11.78-24.91zm-20.44-1.98c3.02 2.04 8.16 4.68 15.57 5.62a1 1 0 0 1 .87 1v13.43c0 8.6-3.83 16.73-10.25 21.77a25.37 25.37 0 0 1-6.39 3.7.99.99 0 0 1-.73 0 25.37 25.37 0 0 1-6.38-3.7c-6.42-5.04-10.25-13.18-10.25-21.77V572.7a1 1 0 0 1 .87-.99c7.4-.94 12.55-3.58 15.57-5.62a1 1 0 0 1 1.12 0zm-.56 2.02a37.64 37.64 0 0 1-15 5.46v12.57c0 7.98 3.55 15.53 9.49 20.2a23.52 23.52 0 0 0 5.51 3.26c1.9-.79 3.75-1.88 5.51-3.26 5.94-4.67 9.49-12.22 9.49-20.2v-12.57a37.64 37.64 0 0 1-15-5.46zm-2.05 26.46l13.3-15.17a1 1 0 0 1 1.4-.09 1 1 0 0 1 .1 1.4l-14 15.98a1 1 0 0 1-.72.34H600a1 1 0 0 1-.7-.29l-8-7.99a1 1 0 1 1 1.4-1.4z"/></defs><g><g transform="translate(-579 -558)"><use fill="#222" xlink:href="#94vta"/></g></g></svg>